<svg width="24" height="26" viewBox="0 0 24 26" fill="none" xmlns="http://www.w3.org/2000/svg">
<path d="M20.0794 22.2367L22.0522 15.6018C22.268 14.8744 21.7236 14.1449 20.9656 14.1449H11.8145H2.66238C1.90436 14.1449 1.35884 14.8755 1.57574 15.6018L3.54857 22.2367H11.8507" stroke="#505071" stroke-miterlimit="10" stroke-linecap="round" stroke-linejoin="round"/>
<path d="M2.15412 21.7477L1.10252 23.7282C0.795807 24.3055 1.21425 25 1.86712 25H11.8124H21.7587C22.4115 25 22.83 24.3044 22.5233 23.7282L21.4717 21.7477" stroke="#505071" stroke-miterlimit="10" stroke-linecap="round" stroke-linejoin="round"/>
<path d="M14.3548 8.50684C14.3548 8.50684 16.8753 9.87391 17.8557 10.6615C18.0891 10.8488 18.2862 11.0767 18.4451 11.3308C18.7408 11.8018 18.8777 12.3561 18.8777 12.9126V14.146" stroke="#505071" stroke-miterlimit="10" stroke-linecap="round" stroke-linejoin="round"/>
<path d="M9.2721 8.50684C9.2721 8.50684 6.75156 9.87391 5.77116 10.6615C5.53784 10.8488 5.34067 11.0767 5.18183 11.3308C4.88607 11.8018 4.74915 12.3561 4.74915 12.9126V14.146" stroke="#505071" stroke-miterlimit="10" stroke-linecap="round" stroke-linejoin="round"/>
<path d="M11.8135 9.83339C13.7778 9.83339 15.3702 7.85597 15.3702 5.4167C15.3702 2.97742 13.7778 1 11.8135 1C9.84909 1 8.25665 2.97742 8.25665 5.4167C8.25665 7.85597 9.84909 9.83339 11.8135 9.83339Z" stroke="#505071" stroke-miterlimit="10" stroke-linecap="round" stroke-linejoin="round"/>
<path d="M20.9952 15.2557C20.9831 15.2404 20.9733 15.2404 20.9645 15.2404H11.8135H2.66239C2.65363 15.2404 2.64267 15.2404 2.63172 15.2557C2.62076 15.271 2.62295 15.2809 2.62624 15.2896L3.65702 18.7566C3.6625 18.7479 3.66688 18.7391 3.67236 18.7303C4.3307 17.5977 5.54332 16.901 6.85453 16.901H20.5242L21.0028 15.2896C21.0039 15.2809 21.0072 15.271 20.9952 15.2557Z" fill="#D6B218"/>
</svg>
