<svg width="25" height="25" viewBox="0 0 25 25" fill="none" xmlns="http://www.w3.org/2000/svg">
<path d="M7.03491 14.9436L8.54465 16.4533L10.0544 17.963C13.1159 16.9072 15.3435 14.4237 16.2613 13.2539C16.5353 12.9039 16.5033 12.406 16.1893 12.0901L14.5476 10.4484L12.9059 8.80664C12.5919 8.49269 12.092 8.4607 11.7421 8.73465C10.5763 9.65449 8.09073 11.8821 7.03491 14.9436Z" stroke="#505071" stroke-miterlimit="10" stroke-linecap="round" stroke-linejoin="round"/>
<path d="M15.8814 11.7841L23.4461 4.21944C23.8 3.8655 23.998 3.38559 23.998 2.88567C23.998 1.84385 23.1541 1 22.1123 1C21.6124 1 21.1325 1.19797 20.7785 1.5519L13.2138 9.11659" stroke="#505071" stroke-miterlimit="10" stroke-linecap="round" stroke-linejoin="round"/>
<path d="M10.0544 17.963C10.2444 19.0208 9.99044 20.3125 9.47053 21.2524C8.95062 22.1922 7.9188 22.7661 6.92297 23.1641C6.09911 23.494 5.20327 23.584 4.32142 23.672C3.21361 23.7819 2.10781 23.8899 1 23.9999C1.10998 22.8921 1.21796 21.7863 1.32794 20.6785C1.41593 19.7966 1.50591 18.8988 1.83585 18.0769C2.23579 17.0791 2.80769 16.0493 3.74752 15.5294C4.68736 15.0095 5.97913 14.7535 7.03695 14.9455" stroke="#505071" stroke-miterlimit="10" stroke-linecap="round" stroke-linejoin="round"/>
<path d="M4.38746 17.5612C4.18549 17.7951 3.94554 18.1811 3.68958 18.8209C3.46362 19.3868 3.39163 20.1107 3.31565 20.8766L3.22766 21.7704L4.12151 21.6824C4.88737 21.6065 5.61125 21.5345 6.17715 21.3085C6.81704 21.0525 7.20297 20.8126 7.43693 20.6106C5.95119 20.2167 4.78339 19.0469 4.38746 17.5612Z" fill="#00D9BA"/>
</svg>
