<svg width="26" height="24" viewBox="0 0 26 24" fill="none" xmlns="http://www.w3.org/2000/svg">
<path d="M8.46703 11.7368C6.69601 11.7368 5.25952 10.3011 5.25952 8.52928C5.25952 6.75827 6.69519 5.32178 8.46703 5.32178C10.238 5.32178 11.5389 6.75745 11.5389 8.52928" stroke="#00D9BA" stroke-miterlimit="10"/>
<path d="M13.7167 22.4733H23.7607C24.4452 22.4733 24.999 21.9158 24.999 21.2292V9.47195C24.999 8.96661 24.5914 8.55713 24.0884 8.55713H8.96755C8.46452 8.55713 8.05692 8.96661 8.05692 9.47195V21.2282C8.05692 21.9158 8.6118 22.4722 9.29529 22.4722H13.7167V22.4733Z" stroke="#505071" stroke-miterlimit="10" stroke-linecap="round" stroke-linejoin="round"/>
<path d="M10.7582 10.362C10.7582 10.1091 10.5529 9.90381 10.3 9.90381C10.0471 9.90381 9.8418 10.1091 9.8418 10.362C9.8418 10.6149 10.0471 10.8202 10.3 10.8202C10.5529 10.8202 10.7582 10.6149 10.7582 10.362Z" fill="#505071"/>
<path d="M12.5911 10.362C12.5911 10.1091 12.3858 9.90381 12.1329 9.90381C11.88 9.90381 11.6747 10.1091 11.6747 10.362C11.6747 10.6149 11.88 10.8202 12.1329 10.8202C12.3858 10.8202 12.5911 10.6149 12.5911 10.362Z" fill="#505071"/>
<path d="M14.424 10.362C14.424 10.1091 14.2187 9.90381 13.9658 9.90381C13.7128 9.90381 13.5075 10.1091 13.5075 10.362C13.5075 10.6149 13.7128 10.8202 13.9658 10.8202C14.2187 10.8202 14.424 10.6149 14.424 10.362Z" fill="#505071"/>
<path d="M8.05695 12.2008H25.0001" stroke="#505071" stroke-miterlimit="10" stroke-linecap="round" stroke-linejoin="round"/>
<path d="M19.1131 18.64L20.6294 17.1167L19.1131 15.5934" stroke="#D6B218" stroke-miterlimit="10" stroke-linecap="round" stroke-linejoin="round"/>
<path d="M13.9439 18.64L12.4276 17.1167L13.9439 15.5934" stroke="#D6B218" stroke-miterlimit="10" stroke-linecap="round" stroke-linejoin="round"/>
<path d="M17.6445 14.8162L15.4126 19.3726" stroke="#D6B218" stroke-miterlimit="10" stroke-linecap="round" stroke-linejoin="round"/>
<path d="M14.0745 8.56761C14.0745 8.55719 14.0745 8.54781 14.0745 8.53739C14.0724 7.66216 14.3909 6.81611 14.9955 6.18469V6.18469C15.1707 6.00189 15.2044 5.72545 15.0782 5.50594L14.2415 4.05065C14.1157 3.83183 13.86 3.72302 13.6151 3.78406V3.78406C12.7687 3.99454 11.8799 3.84971 11.1269 3.41001C11.1186 3.4048 11.1093 3.39959 11.101 3.39542C10.3418 2.95676 9.76717 2.25762 9.52447 1.41261V1.41261C9.45512 1.16846 9.23215 1 8.97834 1H7.31206C7.05852 1 6.83561 1.16788 6.76561 1.41157V1.41157C6.52291 2.25554 5.95039 2.95572 5.19326 3.39229C5.18911 3.39438 5.186 3.39646 5.18185 3.39855C5.17771 3.40063 5.17459 3.40271 5.17045 3.4048C4.41435 3.84554 3.52446 3.99349 2.67606 3.78302V3.78302C2.43054 3.72197 2.1743 3.83119 2.04832 4.0506L1.21272 5.50582C1.08662 5.72542 1.12037 6.00187 1.29559 6.18469V6.18469C1.90233 6.81819 2.21867 7.66842 2.21763 8.54781C2.21763 8.55823 2.21763 8.56761 2.21763 8.57803C2.21971 9.45326 1.90026 10.2993 1.29663 10.9297V10.9297C1.12143 11.1125 1.08776 11.3889 1.21397 11.6084L2.05069 13.0637C2.1765 13.2825 2.43219 13.3914 2.6771 13.3303V13.3303C3.52343 13.1198 4.41228 13.2647 5.16526 13.7044C5.17356 13.7096 5.18289 13.7148 5.19119 13.719C5.95039 14.1576 6.52499 14.8568 6.76768 15.7018V15.7018C6.83769 15.9455 7.06059 16.1133 7.31413 16.1133H8.05895" stroke="#505071" stroke-miterlimit="10" stroke-linecap="round"/>
</svg>
