<svg width="138" height="26" viewBox="0 0 138 26" fill="none" xmlns="http://www.w3.org/2000/svg">
<g clip-path="url(#clip0)">
<path d="M22.7202 0.709916C22.5594 0.548706 22.3674 0.422078 22.1558 0.337814C21.9443 0.253549 21.7178 0.213428 21.4902 0.219916H7.3102V1.89992C7.30727 2.11903 7.35025 2.33633 7.43636 2.53784C7.52248 2.73934 7.64982 2.92059 7.8102 3.06992C7.9708 3.2355 8.16378 3.36624 8.37712 3.45398C8.59045 3.54172 8.81957 3.58459 9.0502 3.57992H13.5802V20.5799H15.2402C15.4685 20.5851 15.6955 20.5434 15.907 20.4574C16.1186 20.3714 16.3103 20.2429 16.4702 20.0799C16.6391 19.9272 16.7737 19.7404 16.865 19.5318C16.9564 19.3232 17.0024 19.0976 17.0002 18.8699V3.58992H23.2502V1.99992C23.2424 1.51848 23.0531 1.05774 22.7202 0.709916Z" fill="white"/>
<path d="M31.7198 6.42996C31.4922 6.42347 31.2657 6.46359 31.0542 6.54786C30.8426 6.63212 30.6506 6.75875 30.4898 6.91996C30.3329 7.07351 30.2086 7.25718 30.1244 7.45995C30.0402 7.66272 29.9978 7.88041 29.9998 8.09996V14.87C29.3998 16.53 27.5798 17.34 25.6198 17.34C23.9998 17.34 23.2198 16.59 23.2198 15.05V8.04996C23.2192 7.82897 23.1737 7.61041 23.086 7.40756C22.9984 7.20471 22.8704 7.0218 22.7098 6.86996C22.5487 6.70923 22.3565 6.58291 22.1451 6.49868C21.9337 6.41445 21.7073 6.37406 21.4798 6.37996H19.7998V15.32C19.7998 18.75 21.5698 20.5 25.2398 20.5C26.1157 20.557 26.9937 20.4259 27.8147 20.1154C28.6357 19.8049 29.3808 19.3223 29.9998 18.7C30.0203 19.5887 29.7343 20.4573 29.1898 21.16C28.7462 21.6126 28.2073 21.9607 27.6122 22.1786C27.0171 22.3966 26.3808 22.4791 25.7498 22.42C24.359 22.4032 22.983 22.1321 21.6898 21.62C21.4764 21.5717 21.2586 21.5449 21.0398 21.54C20.8794 21.5212 20.7169 21.5387 20.5642 21.5911C20.4114 21.6434 20.2724 21.7294 20.1572 21.8426C20.0421 21.9558 19.9538 22.0934 19.8989 22.2452C19.844 22.3971 19.8238 22.5593 19.8398 22.72V24.1L19.9398 24.16C21.7031 25.1783 23.7144 25.6871 25.7498 25.63C30.5098 25.63 33.4198 23.05 33.4198 17.97V6.42996H31.7198Z" fill="white"/>
<path d="M47.33 14.3397C47.1715 13.8507 46.8503 13.4308 46.42 13.1497C46.7094 12.7024 46.9286 12.2134 47.07 11.6997L49.21 6.42969H47.27C46.842 6.38355 46.4111 6.48407 46.0478 6.71479C45.6844 6.94552 45.4102 7.29277 45.27 7.69969L43.81 11.0697C43.7033 11.3497 43.37 11.4897 42.81 11.4897H39.6V1.86969C39.6053 1.65355 39.5653 1.43869 39.4827 1.23892C39.4 1.03914 39.2764 0.858873 39.12 0.709689C38.9599 0.547507 38.768 0.420239 38.5563 0.335906C38.3446 0.251572 38.1177 0.212002 37.89 0.219689H36.21V20.5397H37.9C38.1326 20.5393 38.3627 20.4912 38.576 20.3983C38.7893 20.3054 38.9812 20.1698 39.14 19.9997C39.2991 19.8515 39.4257 19.6719 39.5118 19.4722C39.5978 19.2725 39.6415 19.0571 39.64 18.8397V14.8397H43.4C43.93 14.8397 44.07 15.0797 44.13 15.2697L45.88 19.2697C46.0249 19.6689 46.3028 20.0061 46.667 20.2246C47.0312 20.4431 47.4595 20.5296 47.88 20.4697H49.81L47.33 14.3397Z" fill="white"/>
<path d="M9 9.99984C8.9067 8.88489 8.40498 7.84364 7.5911 7.0759C6.77722 6.30816 5.7085 5.86799 4.59 5.83984H0V10.5398C0.0491882 11.6795 0.524627 12.759 1.33213 13.5647C2.13963 14.3703 3.22028 14.8433 4.36 14.8898H9.06V9.99984H9Z" fill="#00D9BA"/>
<path d="M57.94 5.69986C57.913 4.85254 58.105 4.01257 58.4974 3.26109C58.8897 2.5096 59.4693 1.872 60.18 1.40986C61.6432 0.436563 63.3735 -0.0563066 65.13 -0.000137523H65.19C66.9643 -0.062527 68.7133 0.434202 70.19 1.41986C70.8853 1.89177 71.4504 2.5313 71.8332 3.27937C72.216 4.02743 72.404 4.8599 72.38 5.69986C72.38 9.89986 69.6733 11.9999 64.26 11.9999H60.26V19.4799C60.2625 19.6228 60.2343 19.7645 60.1774 19.8956C60.1205 20.0268 60.0361 20.1441 59.93 20.2399C59.8343 20.346 59.7169 20.4304 59.5858 20.4873C59.4547 20.5442 59.3129 20.5724 59.17 20.5699H57.94V5.69986ZM60.24 9.99986H64.24C68.12 9.99986 70.06 8.5832 70.06 5.74986C70.0827 5.19272 69.9497 4.64027 69.6759 4.15451C69.4022 3.66875 68.9984 3.26891 68.51 2.99986C67.4936 2.42455 66.337 2.14404 65.17 2.18986H65.1C63.9523 2.14621 62.8155 2.42694 61.82 2.99986C61.3338 3.26101 60.929 3.65125 60.6502 4.12761C60.3714 4.60398 60.2295 5.14802 60.24 5.69986V9.99986Z" fill="#00D9BA"/>
<path d="M88.1001 13.1796C88.1001 18.2196 85.7668 20.7396 81.1001 20.7396C76.4334 20.7396 74.1001 18.2196 74.1001 13.1796C74.1001 8.13963 76.4334 5.61963 81.1001 5.61963C85.7668 5.61963 88.1001 8.13963 88.1001 13.1796ZM81.1001 7.65963C80.376 7.59617 79.6474 7.71269 78.9792 7.99882C78.311 8.28494 77.7239 8.7318 77.2701 9.29963C76.5704 10.4676 76.2425 11.8209 76.3301 13.1796C76.2441 14.5446 76.5717 15.9037 77.2701 17.0796C77.7277 17.6534 78.3214 18.104 78.9971 18.3903C79.6729 18.6767 80.4095 18.7899 81.1401 18.7196C81.869 18.7873 82.6033 18.6728 83.277 18.3866C83.9507 18.1004 84.5428 17.6512 85.0001 17.0796C85.6864 15.8995 86.0066 14.5421 85.9201 13.1796C86.0081 11.8234 85.6876 10.472 85.0001 9.29963C84.5428 8.72801 83.9507 8.27891 83.277 7.99266C82.6033 7.70641 81.869 7.59197 81.1401 7.65963H81.1001Z" fill="#00D9BA"/>
<path d="M91.4502 5.79965H92.5402C92.8258 5.80226 93.099 5.91688 93.301 6.11886C93.503 6.32084 93.6176 6.59403 93.6202 6.87965V9.15965C94.7469 6.79965 96.2569 5.61965 98.1502 5.61965C99.0553 5.61788 99.9577 5.71852 100.84 5.91965V6.99965C100.84 7.52965 100.5 7.78965 99.8402 7.78965C99.1538 7.70071 98.4623 7.65728 97.7702 7.65965C95.7702 7.65965 94.4102 8.74965 93.6402 10.9097V19.4797C93.6419 19.6245 93.6144 19.7682 93.5595 19.9022C93.5045 20.0362 93.4231 20.1577 93.3202 20.2597C93.1163 20.4572 92.844 20.5682 92.5602 20.5697H91.4502V5.79965Z" fill="#00D9BA"/>
<path d="M103.49 7.84994C103.348 7.84952 103.208 7.82102 103.078 7.76609C102.947 7.71116 102.829 7.6309 102.73 7.52994C102.626 7.4333 102.543 7.31552 102.488 7.18446C102.433 7.05341 102.406 6.91209 102.41 6.76994V5.76994H104.53V2.91994C104.526 2.77536 104.554 2.63165 104.61 2.49872C104.667 2.36578 104.753 2.24679 104.86 2.14994C104.957 2.04563 105.074 1.96314 105.205 1.90795C105.337 1.85277 105.478 1.82618 105.62 1.82994H106.7V5.82994H111.7C111.986 5.83255 112.259 5.94717 112.461 6.14915C112.663 6.35112 112.777 6.62431 112.78 6.90994V7.90994H106.7V15.6299C106.642 16.109 106.703 16.595 106.878 17.0449C107.052 17.4949 107.334 17.895 107.7 18.2099C108.532 18.659 109.477 18.857 110.42 18.7799C110.979 18.7795 111.538 18.736 112.09 18.6499C112.78 18.6499 113.09 18.9099 113.09 19.4399V20.5199C112.203 20.7111 111.298 20.805 110.39 20.7999C108.867 20.9458 107.337 20.595 106.03 19.7999C105.03 19.0099 104.5 17.6299 104.5 15.6699V7.84994H103.49Z" fill="#00D9BA"/>
<path d="M126.39 17.2096C125.977 18.2717 125.246 19.1805 124.298 19.8122C123.349 20.4439 122.229 20.7678 121.09 20.7396C116.777 20.7396 114.623 18.2196 114.63 13.1796C114.637 8.13963 116.97 5.61963 121.63 5.61963C126.297 5.61963 128.63 8.13963 128.63 13.1796V20.5696H127.54C127.397 20.5721 127.255 20.544 127.124 20.487C126.993 20.4301 126.876 20.3458 126.78 20.2396C126.676 20.143 126.593 20.0252 126.538 19.8941C126.483 19.7631 126.456 19.6218 126.46 19.4796L126.39 17.2096ZM126.39 13.2096C126.478 11.8534 126.157 10.502 125.47 9.32963C124.97 8.80753 124.369 8.39206 123.704 8.10824C123.039 7.82441 122.323 7.67809 121.6 7.67809C120.877 7.67809 120.161 7.82441 119.496 8.10824C118.831 8.39206 118.23 8.80753 117.73 9.32963C117.03 10.4976 116.702 11.8509 116.79 13.2096C116.7 14.5642 117.006 15.9157 117.67 17.0996C118.111 17.6775 118.693 18.1327 119.36 18.4215C120.027 18.7104 120.757 18.8234 121.48 18.7496C122.549 18.8508 123.621 18.5811 124.515 17.9857C125.409 17.3902 126.071 16.5054 126.39 15.4796V13.2096Z" fill="#00D9BA"/>
<path d="M132.2 0.279785H133.29C133.432 0.280203 133.572 0.308701 133.702 0.363631C133.833 0.41856 133.951 0.498828 134.05 0.599785C134.151 0.699001 134.231 0.817263 134.286 0.94772C134.341 1.07818 134.37 1.21824 134.37 1.35979V15.6898C134.37 17.3698 134.65 18.2998 135.19 18.4698C135.489 18.5541 135.799 18.5945 136.11 18.5898C136.361 18.5889 136.612 18.5689 136.86 18.5298C137.55 18.5298 137.86 18.7998 137.86 19.3398V20.4198C137.181 20.5735 136.486 20.6473 135.79 20.6398C135.564 20.6398 135.334 20.6398 135.1 20.6398C134.691 20.616 134.292 20.5046 133.93 20.3131C133.567 20.1216 133.25 19.8545 133 19.5298C132.49 18.8798 132.23 17.5998 132.23 15.6898L132.2 0.279785Z" fill="#00D9BA"/>
</g>
<defs>
<clipPath id="clip0">
<rect width="137.89" height="25.63" fill="white"/>
</clipPath>
</defs>
</svg>