<svg width="24" height="26" viewBox="0 0 24 26" fill="none" xmlns="http://www.w3.org/2000/svg">
<path d="M17.2105 19.6663L19.3683 17.6241C20.3321 16.6958 21.8658 16.7229 22.7942 17.6866C23.0787 17.9815 23.0703 18.4514 22.7755 18.7348L18.4295 22.8693C17.3147 23.9185 15.5694 24.4915 14.0399 24.5541C12.5092 24.6166 10.9859 24.3676 9.45637 24.2811C7.14222 24.1488 3.39333 24.4009 1.15421 25" stroke="#505071" stroke-miterlimit="10" stroke-linecap="round" stroke-linejoin="round"/>
<path d="M7.82365 20.3738L10.5837 20.9646C11.4538 21.1511 12.3405 21.2449 13.2292 21.2449H14.7223C15.4861 21.2449 16.106 20.6249 16.106 19.8612C16.106 19.0975 15.4861 18.4775 14.7223 18.4775H13.4095C12.1998 18.4775 11.0016 18.2306 9.88982 17.7513C9.1094 17.4158 8.33524 17.0667 7.50169 16.8583C5.22402 16.2884 2.67023 16.9875 1 18.6369" stroke="#505071" stroke-miterlimit="10" stroke-linecap="round" stroke-linejoin="round"/>
<path d="M15.0901 8.48315C15.0901 8.48315 17.6033 9.84601 18.5806 10.6306C18.813 10.8171 19.0088 11.0442 19.1683 11.2974C19.4631 11.7673 19.5996 12.3196 19.5996 12.8739V15.3006" stroke="#505071" stroke-miterlimit="10" stroke-linecap="round"/>
<path d="M10.0232 8.48315C10.0232 8.48315 7.51002 9.84601 6.53269 10.6306C6.30033 10.8171 6.10445 11.0442 5.94503 11.2974C5.65017 11.7673 5.51367 12.3196 5.51367 12.8739V15.3006" stroke="#505071" stroke-miterlimit="10" stroke-linecap="round"/>
<path d="M12.5562 9.80646C14.5144 9.80646 16.1019 7.83507 16.1019 5.40323C16.1019 2.97139 14.5144 1 12.5562 1C10.5979 1 9.01044 2.97139 9.01044 5.40323C9.01044 7.83507 10.5979 9.80646 12.5562 9.80646Z" stroke="#505071" stroke-miterlimit="10" stroke-linecap="round"/>
<path d="M12.5561 2.14612C12.2759 2.14612 12.007 2.21905 11.7538 2.34513C12.6739 2.80462 13.3511 4.01848 13.3511 5.40322C13.3511 6.78795 12.6739 8.00181 11.7538 8.4613C12.006 8.58738 12.2759 8.66031 12.5561 8.66031C13.8565 8.66031 14.9557 7.16826 14.9557 5.40322C14.9557 3.63817 13.8565 2.14612 12.5561 2.14612Z" fill="#D6B218"/>
</svg>
