<svg width="24" height="26" viewBox="0 0 24 26" fill="none" xmlns="http://www.w3.org/2000/svg">
<path d="M13.025 2.09094H10.7921C10.563 2.88876 10.2006 3.62594 9.72729 4.27276H14.0909C13.6166 3.62594 13.2541 2.88876 13.025 2.09094Z" fill="#00D9BA"/>
<path d="M3.17871 6.45459L2.09094 8.64985C2.58872 9.28509 2.97436 10.0205 3.23739 10.8182L5.36367 6.52667C4.63849 6.66104 3.89969 6.63905 3.17871 6.45459Z" fill="#00D9BA"/>
<path d="M2.09094 17.3508L3.17906 19.5454C3.90027 19.361 4.63931 19.339 5.36367 19.4721L3.23776 15.1818C2.97464 15.9805 2.58887 16.7157 2.09094 17.3508Z" fill="#00D9BA"/>
<path d="M10.7932 23.9091H13.0261C13.2552 23.1113 13.6177 22.3741 14.0909 21.7273H9.72729C10.2016 22.3753 10.5641 23.1113 10.7932 23.9091Z" fill="#00D9BA"/>
<path d="M21.7273 8.64923L20.6392 6.45459C19.918 6.639 19.179 6.66099 18.4546 6.52787L20.5805 10.8182C20.8436 10.0195 21.2294 9.28552 21.7273 8.64923Z" fill="#00D9BA"/>
<path d="M20.6347 19.5454L21.7273 17.355C21.2327 16.7173 20.8511 15.9807 20.5907 15.1818L18.4546 19.4636C19.1792 19.3328 19.9163 19.3573 20.6347 19.5454Z" fill="#00D9BA"/>
<path d="M11.9091 18.4545C14.9216 18.4545 17.3637 16.0124 17.3637 13C17.3637 9.98749 14.9216 7.54541 11.9091 7.54541C8.89667 7.54541 6.45459 9.98749 6.45459 13C6.45459 16.0124 8.89667 18.4545 11.9091 18.4545Z" stroke="#505071" stroke-miterlimit="10" stroke-linecap="round" stroke-linejoin="round"/>
<path d="M22.3667 9.23304V9.23304C22.6363 8.94061 22.6884 8.50845 22.4961 8.16033L21.2071 5.82749C21.0215 5.49153 20.632 5.32385 20.2603 5.41993V5.41993C18.9685 5.75429 17.612 5.52463 16.4613 4.8255C16.4484 4.81762 16.4354 4.80974 16.4225 4.80186C15.2632 4.10611 14.3861 2.99493 14.0166 1.65297V1.65297C13.9096 1.26711 13.5584 1 13.158 1H10.6613C10.2603 1 9.90857 1.26761 9.80162 1.6541V1.6541C9.43206 2.99381 8.55717 4.10498 7.40108 4.79961C7.39569 4.80298 7.38923 4.80636 7.38384 4.80974C7.37845 4.81312 7.37199 4.81649 7.3666 4.81987C6.21266 5.52012 4.85401 5.75542 3.55892 5.41993V5.41993C3.18664 5.32384 2.79652 5.49187 2.61057 5.8284L1.32212 8.16033C1.12977 8.50845 1.18187 8.94061 1.45145 9.23304V9.23304C2.37805 10.2395 2.86074 11.5882 2.85859 12.9854C2.85859 13.0011 2.85859 13.0169 2.85859 13.0326C2.8629 14.423 2.37481 15.7661 1.45253 16.767V16.767C1.18295 17.0594 1.13085 17.4916 1.3232 17.8397L2.61216 20.1725C2.79778 20.5085 3.18731 20.6762 3.55892 20.5801V20.5801C4.85077 20.2457 6.20727 20.4754 7.35798 21.1745C7.37091 21.1824 7.38384 21.1903 7.39677 21.1981C8.5561 21.8939 9.43313 23.0051 9.80269 24.347V24.347C9.90899 24.7328 10.2598 25 10.6599 25H13.1569C13.5579 25 13.9096 24.7324 14.0166 24.3459V24.3459C14.3861 23.0062 15.261 21.895 16.4171 21.2004C16.4225 21.197 16.429 21.1936 16.4343 21.1903C16.4397 21.1869 16.4462 21.1835 16.4516 21.1801C17.6055 20.4799 18.9642 20.2446 20.2593 20.5801V20.5801C20.6315 20.6762 21.0217 20.5081 21.2076 20.1716L22.4961 17.8397C22.6884 17.4916 22.6363 17.0594 22.3667 16.767V16.767C21.4401 15.7605 20.9574 14.4118 20.9596 13.0146C20.9596 12.9989 20.9596 12.9831 20.9596 12.9674C20.9564 11.577 21.4444 10.235 22.3667 9.23304Z" stroke="#505071" stroke-miterlimit="10" stroke-linecap="round"/>
</svg>
