<svg width="26" height="24" viewBox="0 0 26 24" fill="none" xmlns="http://www.w3.org/2000/svg">
<path d="M12.9925 5.76275C14.1396 5.76275 15.0694 4.69657 15.0694 3.38137C15.0694 2.06618 14.1396 1 12.9925 1C11.8455 1 10.9156 2.06618 10.9156 3.38137C10.9156 4.69657 11.8455 5.76275 12.9925 5.76275Z" stroke="#505071" stroke-miterlimit="10" stroke-linecap="round" stroke-linejoin="round"/>
<path d="M14.4763 5.047C14.4763 5.047 15.9483 5.78345 16.52 6.20852C16.656 6.30935 16.7716 6.43193 16.8637 6.56934C17.036 6.82339 17.1163 7.12193 17.1163 7.42244V9.1929C16.0126 10.0954 14.5823 10.6658 12.9914 10.6658C11.3888 10.6658 9.97348 10.1083 8.86652 9.1929V7.42244C8.86652 7.12292 8.94681 6.82438 9.11917 6.56934C9.21231 6.43193 9.32686 6.30935 9.46282 6.20852C10.0345 5.78345 11.5065 5.047 11.5065 5.047" stroke="#505071" stroke-miterlimit="10" stroke-linecap="round" stroke-linejoin="round"/>
<path d="M20.8761 18.1659C22.0232 18.1659 22.953 17.0998 22.953 15.7846C22.953 14.4694 22.0232 13.4032 20.8761 13.4032C19.7291 13.4032 18.7992 14.4694 18.7992 15.7846C18.7992 17.0998 19.7291 18.1659 20.8761 18.1659Z" stroke="#505071" stroke-miterlimit="10" stroke-linecap="round" stroke-linejoin="round"/>
<path d="M22.36 17.4502C22.36 17.4502 23.8321 18.1867 24.4037 18.6117C24.5397 18.7126 24.6553 18.8351 24.7474 18.9725C24.9198 19.2266 25 19.5251 25 19.8256V21.5961C23.8963 22.4986 22.466 23.069 20.8751 23.069C19.2725 23.069 17.8572 22.5115 16.7502 21.5961V19.8256C16.7502 19.5261 16.8305 19.2276 17.0029 18.9725C17.096 18.8351 17.2106 18.7126 17.3465 18.6117C17.9182 18.1867 19.3903 17.4502 19.3903 17.4502" stroke="#505071" stroke-miterlimit="10" stroke-linecap="round" stroke-linejoin="round"/>
<path d="M5.126 18.1659C6.27304 18.1659 7.20291 17.0998 7.20291 15.7846C7.20291 14.4694 6.27304 13.4032 5.126 13.4032C3.97896 13.4032 3.0491 14.4694 3.0491 15.7846C3.0491 17.0998 3.97896 18.1659 5.126 18.1659Z" stroke="#505071" stroke-miterlimit="10" stroke-linecap="round" stroke-linejoin="round"/>
<path d="M6.60978 17.4502C6.60978 17.4502 8.08181 18.1867 8.65349 18.6117C8.78946 18.7126 8.90508 18.8351 8.99715 18.9725C9.16951 19.2266 9.2498 19.5251 9.2498 19.8256V21.5961C8.14604 22.4986 6.71576 23.069 5.1249 23.069C3.52226 23.069 2.10697 22.5115 1 21.5961V19.8256C1 19.5261 1.08029 19.2276 1.25265 18.9725C1.34579 18.8351 1.46034 18.7126 1.59631 18.6117C2.16799 18.1867 3.64002 17.4502 3.64002 17.4502" stroke="#505071" stroke-miterlimit="10" stroke-linecap="round" stroke-linejoin="round"/>
<path d="M13.0118 14.7375L10.2283 17.3067" stroke="#505071" stroke-miterlimit="10" stroke-linecap="round" stroke-linejoin="round"/>
<path d="M13.0119 11.9015V14.7376L15.7557 17.2722" stroke="#505071" stroke-miterlimit="10" stroke-linecap="round" stroke-linejoin="round"/>
<path d="M10.1171 7.14868C10.071 7.21689 10.0453 7.31476 10.0453 7.42251V8.67794C10.9104 9.2681 11.9199 9.57849 12.9926 9.57849C14.2709 9.57849 15.258 9.13662 15.9399 8.67498V7.42251C15.9399 7.31476 15.9142 7.21788 15.8682 7.14868C15.0396 7.8881 14.0536 8.3191 12.9937 8.3191C11.9317 8.3191 10.9457 7.8881 10.1171 7.14868Z" fill="#00D9BA"/>
</svg>
