<svg width="80" height="80" viewBox="0 0 80 80" fill="none" xmlns="http://www.w3.org/2000/svg">
<path d="M67.52 55.8339V24.1539L40.1539 8.32001L12.8 24.1539V55.8339L40.1539 71.68L67.52 55.8339Z" stroke="#43435B" stroke-width="2" stroke-linecap="round" stroke-linejoin="round"/>
<path d="M40 13.44C42.8277 13.44 45.12 11.1477 45.12 8.32001C45.12 5.49231 42.8277 3.20001 40 3.20001C37.1723 3.20001 34.88 5.49231 34.88 8.32001C34.88 11.1477 37.1723 13.44 40 13.44Z" fill="#00D9BA" stroke="#43435B" stroke-width="2" stroke-linecap="round" stroke-linejoin="round"/>
<path d="M40 76.48C42.8277 76.48 45.12 74.2593 45.12 71.52C45.12 68.7807 42.8277 66.56 40 66.56C37.1723 66.56 34.88 68.7807 34.88 71.52C34.88 74.2593 37.1723 76.48 40 76.48Z" fill="#00D9BA" stroke="#43435B" stroke-width="2" stroke-linecap="round" stroke-linejoin="round"/>
<path d="M67.52 60.8C70.3477 60.8 72.64 58.5077 72.64 55.68C72.64 52.8523 70.3477 50.56 67.52 50.56C64.6923 50.56 62.4 52.8523 62.4 55.68C62.4 58.5077 64.6923 60.8 67.52 60.8Z" fill="#00D9BA" stroke="#43435B" stroke-width="2" stroke-linecap="round" stroke-linejoin="round"/>
<path d="M12.64 60.8C15.5561 60.8 17.92 58.5077 17.92 55.68C17.92 52.8523 15.5561 50.56 12.64 50.56C9.72394 50.56 7.36 52.8523 7.36 55.68C7.36 58.5077 9.72394 60.8 12.64 60.8Z" fill="#00D9BA" stroke="#43435B" stroke-width="2" stroke-linecap="round" stroke-linejoin="round"/>
<path d="M67.52 29.12C70.3477 29.12 72.64 26.8277 72.64 24C72.64 21.1723 70.3477 18.88 67.52 18.88C64.6923 18.88 62.4 21.1723 62.4 24C62.4 26.8277 64.6923 29.12 67.52 29.12Z" fill="#00D9BA" stroke="#43435B" stroke-width="2" stroke-linecap="round" stroke-linejoin="round"/>
<path d="M12.64 29.12C15.5561 29.12 17.92 26.8277 17.92 24C17.92 21.1723 15.5561 18.88 12.64 18.88C9.72394 18.88 7.36 21.1723 7.36 24C7.36 26.8277 9.72394 29.12 12.64 29.12Z" fill="#00D9BA" stroke="#43435B" stroke-width="2" stroke-linecap="round" stroke-linejoin="round"/>
</svg>
