<svg width="80" height="80" viewBox="0 0 80 80" fill="none" xmlns="http://www.w3.org/2000/svg">
<path d="M22.0173 53.8172H3.25995C2.31931 53.8172 1.60001 54.5365 1.60001 55.4771V67.7607C1.60001 68.7013 2.31931 69.4206 3.25995 69.4206H22.0173C22.9579 69.4206 23.6772 68.7013 23.6772 67.7607V55.4771C23.6772 54.5918 22.9026 53.8172 22.0173 53.8172Z" stroke="#505071" stroke-width="2" stroke-miterlimit="10" stroke-linecap="round" stroke-linejoin="round"/>
<path d="M3.48126 67.0967V57.635C5.19654 62.3935 9.40172 65.7687 14.3815 66.4881L21.7406 67.5947H3.92391C3.64726 67.5393 3.48126 67.318 3.48126 67.0967Z" fill="#D6B218"/>
<path d="M4.03455 53.8172V50.6633C4.03455 45.9048 7.85241 42.0869 12.6109 42.0869C14.9902 42.0869 17.1481 43.0275 18.6974 44.6322C20.2466 46.1814 21.1873 48.3394 21.1873 50.7186V53.8725" stroke="#505071" stroke-width="2" stroke-miterlimit="10" stroke-linecap="round" stroke-linejoin="round"/>
<path d="M29.3211 64.6068H34.6329H73.5862C76.2421 64.6068 78.4 62.4489 78.4 59.793V14.4212C78.4 12.4846 76.7954 10.88 74.8588 10.88H16.2075C14.2709 10.88 12.6663 12.4846 12.6663 14.4212V36.3878" stroke="#505071" stroke-width="2" stroke-miterlimit="10" stroke-linecap="round" stroke-linejoin="round"/>
<path d="M21.5746 17.9624C21.5746 17.6304 21.2979 17.3538 20.9659 17.3538C20.634 17.3538 20.3573 17.6304 20.3573 17.9624C20.3573 18.2944 20.634 18.5711 20.9659 18.5711C21.2979 18.5711 21.5746 18.2944 21.5746 17.9624Z" fill="#505071" stroke="#505071" stroke-width="4" stroke-miterlimit="10" stroke-linecap="round" stroke-linejoin="round"/>
<path d="M28.6018 17.9624C28.6018 17.6304 28.3251 17.3538 27.9931 17.3538C27.6612 17.3538 27.3845 17.6304 27.3845 17.9624C27.3845 18.2944 27.6612 18.5711 27.9931 18.5711C28.3251 18.5711 28.6018 18.2944 28.6018 17.9624Z" fill="#505071" stroke="#505071" stroke-width="4" stroke-miterlimit="10" stroke-linecap="round" stroke-linejoin="round"/>
<path d="M35.6288 17.9624C35.6288 17.6304 35.3521 17.3538 35.0201 17.3538C34.6882 17.3538 34.4115 17.6304 34.4115 17.9624C34.4115 18.2944 34.6882 18.5711 35.0201 18.5711C35.3521 18.5711 35.6288 18.2944 35.6288 17.9624Z" fill="#505071" stroke="#505071" stroke-width="4" stroke-miterlimit="10" stroke-linecap="round" stroke-linejoin="round"/>
<path d="M12.7217 24.9342H78.4" stroke="#505071" stroke-width="2" stroke-miterlimit="10" stroke-linecap="round" stroke-linejoin="round"/>
<path d="M59.366 61.2869H73.3095C74.3055 61.2869 75.1355 60.4569 75.1355 59.461V45.5175L74.8588 46.3474C72.5349 53.6512 66.7251 59.2396 59.366 61.2869Z" fill="#C3C3E5"/>
<path d="M26.0013 45.7941L28.1592 42.9722L36.0162 51.4933L48.7978 33.2892L60.0854 47.8967L66.5592 39.6523" stroke="#FF6C7D" stroke-width="3" stroke-miterlimit="10" stroke-linecap="round" stroke-linejoin="round"/>
</svg>
