<svg width="80" height="80" viewBox="0 0 80 80" fill="none" xmlns="http://www.w3.org/2000/svg">
<path d="M15.5871 20.6976C15.5894 20.4434 15.5163 20.1943 15.377 19.9819C15.2377 19.7694 15.0386 19.6032 14.8049 19.5044C14.5713 19.4056 14.3135 19.3785 14.0645 19.4267C13.8155 19.4749 13.5863 19.5962 13.4062 19.7751C13.226 19.954 13.103 20.1825 13.0526 20.4317C13.0023 20.6808 13.027 20.9393 13.1235 21.1743C13.2201 21.4094 13.3841 21.6104 13.5948 21.7519C13.8056 21.8933 14.0535 21.9689 14.3071 21.9689C14.6447 21.9689 14.9685 21.8353 15.2082 21.5972C15.4479 21.3591 15.5841 21.0358 15.5871 20.6976Z" fill="#505071"/>
<path d="M22.4251 20.6976C22.4274 20.4434 22.3542 20.1943 22.2149 19.9819C22.0757 19.7694 21.8766 19.6032 21.6429 19.5044C21.4092 19.4056 21.1515 19.3785 20.9025 19.4267C20.6534 19.4749 20.4243 19.5962 20.2441 19.7751C20.064 19.954 19.9409 20.1825 19.8906 20.4317C19.8403 20.6808 19.8649 20.9393 19.9615 21.1743C20.058 21.4094 20.2221 21.6104 20.4328 21.7519C20.6435 21.8933 20.8914 21.9688 21.1451 21.9689C21.4826 21.9689 21.8064 21.8353 22.0462 21.5972C22.2859 21.3591 22.4221 21.0358 22.4251 20.6976Z" fill="#505071"/>
<path d="M29.2632 20.6966C29.2651 20.4396 29.1899 20.1879 29.0474 19.9742C28.9049 19.7605 28.7016 19.5947 28.4638 19.4982C28.2261 19.4016 27.9649 19.3789 27.7142 19.4329C27.4634 19.487 27.2346 19.6152 27.0575 19.8011C26.8804 19.987 26.763 20.2219 26.7207 20.4755C26.6784 20.729 26.7131 20.9894 26.8203 21.2229C26.9274 21.4564 27.1021 21.6523 27.3217 21.7851C27.5413 21.918 27.7956 21.9816 28.0517 21.9679C28.3772 21.9504 28.6838 21.8091 28.9089 21.5729C29.134 21.3366 29.2607 21.0233 29.2632 20.6966Z" fill="#505071"/>
<path d="M8 27H72" stroke="#505071" stroke-width="2" stroke-linecap="round" stroke-linejoin="round"/>
<path d="M8.02155 38.5646V17.1943C8.02011 16.9628 8.04352 16.7318 8.09138 16.5053C8.25033 15.7325 8.66961 15.0379 9.2789 14.5381C9.8882 14.0382 10.6505 13.7635 11.4379 13.76H68.3766C69.1658 13.7611 69.9306 14.0346 70.5421 14.5347C71.1536 15.0347 71.5745 15.7307 71.7338 16.5053C71.7817 16.7318 71.8051 16.9628 71.8037 17.1943V20.9086" stroke="#505071" stroke-width="2" stroke-linecap="round" stroke-linejoin="round"/>
<path d="M67.9851 66C68.5126 66.0007 69.0349 65.8979 69.5224 65.6976C70.0098 65.4973 70.4527 65.2033 70.8256 64.8325C71.1986 64.4618 71.4943 64.0215 71.6958 63.5369C71.8973 63.0523 72.0007 62.533 71.9999 62.0087V17.4181C72.0014 17.1877 71.9779 16.9578 71.9299 16.7323C71.6173 15.1733 70.3132 14 69.1869 14H12.0634C9.85388 14 8.39885 15.1733 8.07012 16.7323C8.02211 16.9578 7.99862 17.1877 8.00006 17.4181V61.3497C8.00006 62.583 8.49289 63.7658 9.37012 64.638C10.2473 65.5101 11.4371 66 12.6777 66H67.9851Z" stroke="#505071" stroke-width="2" stroke-linecap="round" stroke-linejoin="round"/>
<rect x="12.16" y="31.04" width="13.44" height="13.44" rx="4" fill="#A2A2CC"/>
<rect x="33.28" y="31.04" width="13.44" height="13.44" rx="4" fill="#A2A2CC"/>
<rect x="54.4" y="31.04" width="13.44" height="13.44" rx="4" fill="#A2A2CC"/>
<rect x="12.16" y="48.32" width="13.44" height="13.44" rx="4" fill="#A2A2CC"/>
<rect x="33.28" y="48.32" width="13.44" height="13.44" rx="4" fill="#A2A2CC"/>
<rect x="54.4" y="48.32" width="13.44" height="13.44" rx="4" fill="#A2A2CC"/>
</svg>
