<svg width="263" height="202" viewBox="0 0 263 202" fill="none" xmlns="http://www.w3.org/2000/svg">
<path opacity="0.5" d="M119.617 97.9467C119.495 97.7637 118.732 96.7874 117.115 96.5128C115.498 96.2077 113.942 96.5128 113.027 96.6959C112.112 96.9094 112.386 97.8857 112.386 97.8857C112.386 97.8857 112.631 98.862 113.21 100.479C113.393 100.937 113.637 101.333 113.973 101.608C114.492 101.059 115.193 100.662 115.986 100.54C115.742 100.021 115.59 99.5942 115.59 99.5942C115.59 99.5942 115.01 98.7399 116.231 98.7704C117.481 98.801 118.061 98.5569 118.671 100.113C118.732 100.265 118.763 100.387 118.793 100.509H120.593C120.349 99.1671 119.739 98.0688 119.617 97.9467Z" fill="#00D9BA"/>
<path opacity="0.5" d="M141.431 96.6959C140.515 96.4824 138.99 96.2078 137.373 96.5129C135.786 96.818 135.024 97.7637 134.902 97.9468C134.81 98.0993 134.2 99.1671 133.956 100.509H135.725C135.756 100.387 135.786 100.265 135.847 100.113C136.458 98.5569 137.037 98.8315 138.258 98.7705C139.478 98.74 138.898 99.5942 138.898 99.5942C138.898 99.5942 138.746 100.021 138.502 100.509H138.685C139.478 100.509 140.21 100.784 140.79 101.242C140.973 101.028 141.095 100.754 141.217 100.479C141.797 98.8315 142.041 97.8858 142.041 97.8858C142.041 97.8858 142.346 96.879 141.431 96.6959Z" fill="#00D9BA"/>
<path d="M126.878 158.567C115.864 164.059 114.461 171.259 114.461 175.164C114.461 187.916 128.678 193.469 138.929 196.245C147.166 198.472 155.647 199.296 164.129 199.967C170.993 200.516 177.858 200.791 184.753 200.791C200.22 200.791 214.956 199.479 226.275 197.099C232.803 195.726 238.234 193.987 242.383 191.913C242.627 191.791 242.871 191.669 243.115 191.547" stroke="#C3C3E5" stroke-width="2" stroke-miterlimit="10" stroke-linecap="round" stroke-linejoin="round"/>
<path d="M153.39 159.513C158.576 158.75 164.251 158.201 170.2 157.865" stroke="#C3C3E5" stroke-width="2" stroke-miterlimit="10" stroke-linecap="round" stroke-linejoin="round"/>
<path d="M177.766 192.767C165.624 192.432 154.305 191.272 145.336 189.381C139.631 188.191 134.993 186.696 131.576 184.988C124.895 181.662 123.492 177.788 123.492 175.133C123.492 172.479 124.895 168.635 131.576 165.279C134.353 163.906 137.892 162.686 142.163 161.618" stroke="#C3C3E5" stroke-width="2" stroke-miterlimit="10" stroke-linecap="round" stroke-linejoin="round"/>
<path d="M214.59 159.299C222.614 160.398 231.491 161.709 238.661 165.676C242.139 167.598 246.014 170.832 246.014 175.164C246.014 177.818 244.61 181.662 237.929 185.018C234.512 186.726 229.875 188.191 224.169 189.411C215.23 191.303 203.912 192.462 191.739 192.798" stroke="#C3C3E5" stroke-width="2" stroke-miterlimit="10" stroke-linecap="round" stroke-linejoin="round"/>
<path d="M135.451 178.794C134.169 177.91 132.522 176.903 132.522 175.164C132.522 172.662 136.519 170.343 143.261 168.482" stroke="white" stroke-width="2" stroke-miterlimit="10" stroke-linecap="round" stroke-linejoin="round"/>
<path d="M214.468 166.103C218.251 166.652 222.003 167.384 225.695 168.33C228.654 169.093 231.583 169.977 234.207 171.594C235.458 172.357 237.014 173.547 237.014 175.164C237.014 179.221 226.58 182.76 211.051 184.682" stroke="#C3C3E5" stroke-width="2" stroke-miterlimit="10" stroke-linecap="round" stroke-linejoin="round"/>
<path d="M152.383 166.499C155.861 165.92 159.614 165.432 163.702 165.065" stroke="white" stroke-width="2" stroke-miterlimit="10" stroke-linecap="round" stroke-linejoin="round"/>
<path d="M204.308 150.269C212.393 150.879 219.898 151.886 226.275 153.259" stroke="#C3C3E5" stroke-width="2" stroke-miterlimit="10" stroke-linecap="round" stroke-linejoin="round"/>
<path d="M153.603 151.489C161.2 150.452 169.468 149.842 178.346 149.628" stroke="#C3C3E5" stroke-width="2" stroke-miterlimit="10" stroke-linecap="round" stroke-linejoin="round"/>
<path d="M145.885 122.903C151.132 123.543 156.624 124.52 162.268 125.954" stroke="#A2A2CC" stroke-width="2" stroke-miterlimit="10" stroke-linecap="round" stroke-linejoin="round"/>
<path d="M94.5085 126.411C94.5085 126.411 96.7356 125.679 100.732 124.825L103.295 124.306C105.186 123.94 107.353 123.574 109.732 123.238" stroke="#A2A2CC" stroke-width="2" stroke-miterlimit="10" stroke-linecap="round" stroke-linejoin="round"/>
<path d="M80.7797 101.242C81.3899 103.896 82.1221 106.52 82.9763 109.082C84.0136 112.133 85.2035 115.062 86.5763 117.838C90.0238 124.855 97.3458 129.371 105.4 129.371H113.82" stroke="#A2A2CC" stroke-width="2" stroke-miterlimit="10" stroke-linecap="round" stroke-linejoin="round"/>
<path d="M78.8881 78.6959C78.8271 80.0993 78.7966 81.5332 78.7966 82.9671C78.7966 85.9569 78.9491 88.9163 79.2542 91.8451" stroke="#A2A2CC" stroke-width="2" stroke-miterlimit="10" stroke-linecap="round" stroke-linejoin="round"/>
<path d="M82.4272 58.5604C82.6102 58.0112 82.7933 57.4315 82.9763 56.8824C85.9356 48.157 90.4204 39.8587 96.7051 33.0858C99.6034 29.9434 102.868 27.1366 106.468 24.7875C110.464 22.1943 114.797 20.2112 119.464 19.2044C124.285 18.1366 129.349 17.9841 134.231 18.6553C138.837 19.2654 143.292 21.096 147.319 23.3841C150.949 25.3977 154.244 27.9909 157.203 30.8892C158.881 32.5061 160.437 34.2451 161.871 36.0756C164.312 39.1265 166.509 42.4824 168.4 46.0519" stroke="#A2A2CC" stroke-width="2" stroke-miterlimit="10" stroke-linecap="round" stroke-linejoin="round"/>
<path d="M141.064 129.371H145.885H149.119H150.644C158.698 129.371 166.051 124.886 169.468 117.838C170.841 115.062 172.03 112.133 173.068 109.082C174.288 105.513 175.173 101.821 175.844 98.1299C176.729 93.1265 177.247 88.0621 177.247 82.9977C177.247 73.9062 175.844 65.1502 173.037 56.8824" stroke="#A2A2CC" stroke-width="2" stroke-miterlimit="10" stroke-linecap="round" stroke-linejoin="round"/>
<path d="M94.5085 145.876C90.7559 142.337 87.0339 138.737 83.922 134.588" stroke="#7A79A1" stroke-width="2" stroke-miterlimit="10" stroke-linecap="round" stroke-linejoin="round"/>
<path d="M69.5526 64.1129C71.7187 53.496 75.7153 43.7943 81.0237 35.5265" stroke="#7A79A1" stroke-width="2" stroke-miterlimit="10" stroke-linecap="round" stroke-linejoin="round"/>
<path d="M165.166 93.7366C164.342 94.2248 162.908 94.0112 162.024 93.8892C160.529 93.6756 158.82 93.279 157.417 92.6383C155.617 91.8146 153.939 90.8078 152.322 89.6485C148.722 87.0858 145.519 83.8824 142.498 80.7705C140.058 78.2383 137.678 75.6146 135.481 72.8688C134.475 71.618 133.376 70.2451 132.43 68.8112C131.576 67.4688 130.844 66.0654 130.539 64.601C130.325 63.6248 130.295 62.1298 130.63 61.1536C132.247 56.6688 141.858 61.6112 144.054 63.1366C147.349 65.4248 149.912 69.0553 152.139 72.3502C154.03 75.157 155.83 78.3909 156.776 81.6858C157.508 84.218 158.729 87.0858 160.254 88.9773C161.353 90.3502 162.207 90.9909 163.976 91.8756C164.708 92.1197 166.264 93.0654 165.166 93.7366Z" stroke="#00D9BA" stroke-width="2" stroke-miterlimit="10" stroke-linecap="round" stroke-linejoin="round"/>
<path d="M121.997 100.51H116.475C116.292 100.51 116.139 100.51 115.956 100.54C115.163 100.662 114.461 101.059 113.942 101.608C113.332 102.279 112.966 103.225 113.088 104.232L113.119 104.445C112.478 104.171 111.898 103.865 111.441 103.286C110.434 102.065 109.824 100.204 109.458 98.7096C109.122 97.4282 108.359 95.6587 109.824 94.8045C111.105 94.0723 113.149 94.1333 114.553 94.1028C115.986 94.1028 116.993 94.2858 117.939 94.5909C120.471 95.3536 121.539 97.9774 121.997 100.51Z" stroke="#00D9BA" stroke-width="2" stroke-miterlimit="10" stroke-linecap="round" stroke-linejoin="round"/>
<path d="M144.969 98.7095C144.603 100.204 144.024 102.065 143.017 103.286C142.742 103.591 142.468 103.835 142.132 104.048C142.193 102.92 141.675 101.882 140.851 101.242C140.271 100.784 139.539 100.509 138.746 100.509H132.583C133.041 97.9773 134.108 95.3536 136.61 94.5908C137.556 94.3163 138.532 94.1027 139.936 94.1027C141.339 94.1027 143.353 94.0722 144.603 94.8044C146.037 95.6281 145.275 97.4281 144.969 98.7095Z" stroke="#00D9BA" stroke-width="2" stroke-miterlimit="10" stroke-linecap="round" stroke-linejoin="round"/>
<path d="M133.437 63.5637C133.437 63.5637 133.163 62.4959 134.505 62.2213C135.847 61.9468 139.631 62.7705 142.864 65.4552" stroke="#00D9BA" stroke-width="2" stroke-miterlimit="10" stroke-linecap="round" stroke-linejoin="round"/>
<path d="M154.702 107.252C154.641 118.937 145.885 122.903 145.885 122.903L145.854 122.933C142.437 128.333 137.556 133.062 137.556 133.062C137.098 133.459 136.671 133.916 136.275 134.404C136.397 133.733 136.427 133.032 136.366 132.269C136.305 131.567 136.305 130.865 136.153 130.225H136.366C138.105 130.225 139.569 128.913 139.722 127.174L140.18 122.872C139.997 122.811 139.783 122.72 139.6 122.628C139.6 122.628 134.139 120.554 137.647 118.906C138.959 118.296 139.783 118.082 140.729 117.564L142.102 104.201C142.102 104.14 142.102 104.079 142.102 104.018C142.437 103.835 142.712 103.591 142.986 103.255C143.993 102.035 144.573 100.174 144.939 98.679C145.244 97.3977 146.007 95.6282 144.573 94.774C143.322 94.0417 141.308 94.1028 139.905 94.0723C138.471 94.0723 137.495 94.2553 136.58 94.5604C134.078 95.3231 133.01 97.9468 132.553 100.479H121.997C121.539 97.9468 120.471 95.3231 117.939 94.5604C116.993 94.2858 116.017 94.0723 114.553 94.0723C113.149 94.0723 111.105 94.0417 109.824 94.774C108.359 95.6282 109.122 97.4282 109.458 98.679C109.824 100.174 110.434 102.035 111.441 103.255C111.898 103.804 112.478 104.11 113.119 104.415L114.461 117.564C114.614 117.655 114.766 117.716 114.888 117.777C115.681 118.143 116.444 118.388 117.542 118.906C119.922 120.035 118.153 121.347 116.78 122.079C116.139 122.415 115.59 122.628 115.59 122.628C115.407 122.72 115.193 122.811 114.98 122.872L115.437 127.174C115.62 128.852 116.993 130.133 118.671 130.225C118.641 130.347 118.61 130.469 118.61 130.591C118.519 131.14 118.458 131.689 118.458 132.269C118.458 132.849 118.519 133.428 118.61 133.977C117.237 132.391 115.102 130.194 112.936 127.693C111.319 126.045 110.373 124.764 109.305 122.994C107.078 122.171 105.369 121.011 103.875 119.181C102.471 117.472 101.403 115.459 100.61 113.384C98.6881 108.32 99.6949 102.584 100.275 97.3672C100.732 93.0655 101.953 88.5807 104.302 84.9197C112.447 72.2587 121.997 69.3604 121.997 69.3604C126.329 67.2553 132.431 68.7197 132.431 68.7197C133.376 70.1841 134.475 71.5265 135.481 72.7773C137.678 75.5231 140.058 78.1468 142.498 80.679C145.519 83.7909 148.722 86.9943 152.322 89.557C152.536 89.7401 153.573 91.6621 154.397 103.682C154.519 105.055 154.61 106.215 154.702 107.252Z" fill="#00D9BA" fill-opacity="0.3" stroke="#00D9BA" stroke-width="2" stroke-miterlimit="10" stroke-linecap="round" stroke-linejoin="round"/>
<path d="M174.349 153.228C176.119 151.947 177.308 150.818 178.132 149.872" stroke="#A2A2CC" stroke-width="2" stroke-miterlimit="10" stroke-linecap="round" stroke-linejoin="round"/>
<path d="M186.736 138.005C188.169 137.455 189.695 137.181 191.312 137.181C197.902 137.181 203.302 142.123 204.095 148.469" stroke="#D6B218" stroke-width="2" stroke-miterlimit="10" stroke-linecap="round" stroke-linejoin="round"/>
<path d="M178.407 149.537C178.529 146.516 179.749 143.588 181.793 141.33C183.135 139.866 184.905 138.828 186.705 138.005" stroke="#D6B218" stroke-width="2" stroke-miterlimit="10" stroke-linecap="round" stroke-linejoin="round"/>
<path d="M179.597 155.455C178.834 153.808 178.407 151.977 178.407 150.055C178.407 149.872 178.407 149.689 178.407 149.537" stroke="#D6B218" stroke-width="2" stroke-miterlimit="10" stroke-linecap="round" stroke-linejoin="round"/>
<path d="M193.173 162.655C192.898 163.113 192.288 163.021 191.83 163.021C191.19 163.021 190.549 162.991 189.939 162.899C187.468 162.594 185.058 161.588 183.105 160.001C182.647 159.604 182.19 159.177 181.793 158.75" stroke="#D6B218" stroke-width="2" stroke-miterlimit="10" stroke-linecap="round" stroke-linejoin="round"/>
<path d="M179.047 154.083C181.915 153.716 184.783 152.71 187.376 151.489C189.969 150.269 192.41 148.652 194.546 146.699C195.644 145.693 196.681 144.564 197.597 143.374L198.573 142.032C198.939 141.483 199.305 140.872 199.671 140.262" stroke="#D6B218" stroke-width="2" stroke-miterlimit="10" stroke-linecap="round" stroke-linejoin="round"/>
<path d="M193.752 153.808C194.515 153.259 195.278 152.649 196.01 151.977C198.573 149.689 200.83 146.883 202.478 143.862" stroke="#D6B218" stroke-width="2" stroke-miterlimit="10" stroke-linecap="round" stroke-linejoin="round"/>
<path d="M182.251 159.269C182.251 159.269 186.522 158.415 191.464 155.364" stroke="#D6B218" stroke-width="2" stroke-miterlimit="10" stroke-linecap="round" stroke-linejoin="round"/>
<path d="M196.864 155.913C199.366 153.747 201.837 150.757 203.729 146.699" stroke="#D6B218" stroke-width="2" stroke-miterlimit="10" stroke-linecap="round" stroke-linejoin="round"/>
<path d="M185.637 161.649C185.637 161.649 188.566 161.191 192.288 159.116" stroke="#D6B218" stroke-width="2" stroke-miterlimit="10" stroke-linecap="round" stroke-linejoin="round"/>
<path d="M194.668 137.638C194.027 140.079 194.759 142.947 196.315 144.899" stroke="#D6B218" stroke-width="2" stroke-miterlimit="10" stroke-linecap="round" stroke-linejoin="round"/>
<path d="M191.281 137.181C190.091 140.323 190.763 144.137 192.532 146.913C192.746 147.218 192.959 147.554 193.173 147.828" stroke="#D6B218" stroke-width="2" stroke-miterlimit="10" stroke-linecap="round" stroke-linejoin="round"/>
<path d="M188.23 137.577C187.193 140.384 187.01 143.74 187.773 146.638C188.139 147.981 188.688 149.232 189.481 150.36" stroke="#D6B218" stroke-width="2" stroke-miterlimit="10" stroke-linecap="round" stroke-linejoin="round"/>
<path d="M181.641 141.543C183.563 141.543 185.729 142.001 187.346 143.069" stroke="#D6B218" stroke-width="2" stroke-miterlimit="10" stroke-linecap="round" stroke-linejoin="round"/>
<path d="M179.261 145.418C182.281 145.143 185.302 146.15 187.956 147.523" stroke="#D6B218" stroke-width="2" stroke-miterlimit="10" stroke-linecap="round" stroke-linejoin="round"/>
<path d="M178.407 149.689C181.274 149.384 184.447 150.208 186.919 151.703" stroke="#D6B218" stroke-width="2" stroke-miterlimit="10" stroke-linecap="round" stroke-linejoin="round"/>
<path d="M168.461 164.669C168.247 162.289 169.163 159.818 170.261 157.774C171.207 156.035 172.549 154.54 174.136 153.411C174.197 153.35 174.258 153.32 174.349 153.259" stroke="#A2A2CC" stroke-width="2" stroke-miterlimit="10" stroke-linecap="round" stroke-linejoin="round"/>
<path d="M169.468 169.154C168.949 167.75 168.613 166.225 168.461 164.669" stroke="#A2A2CC" stroke-width="2" stroke-miterlimit="10" stroke-linecap="round" stroke-linejoin="round"/>
<path d="M199.244 179.618C194.637 181.54 189.634 182.394 184.661 181.54C178.681 180.533 173.495 176.903 170.658 171.808" stroke="#A2A2CC" stroke-width="2" stroke-miterlimit="10" stroke-linecap="round" stroke-linejoin="round"/>
<path d="M214.529 163.876C214.651 165.127 214.437 166.377 213.888 167.537C213.888 167.537 218.281 171.625 216.329 172.662C214.376 173.699 210.197 172.327 210.197 172.327C210.044 172.266 208.732 173.669 208.58 173.791C206.597 175.499 204.4 177.025 202.051 178.276" stroke="#A2A2CC" stroke-width="2" stroke-miterlimit="10" stroke-linecap="round" stroke-linejoin="round"/>
<path d="M202.905 156.127C203.698 155.883 204.552 155.821 205.407 155.974C209.098 156.737 209.739 157.377 209.739 157.377C209.739 157.377 215.383 156.066 215.474 156.798C215.535 157.53 213.705 161.221 213.705 161.221C213.858 161.527 214.01 161.832 214.132 162.137" stroke="#A2A2CC" stroke-width="2" stroke-miterlimit="10" stroke-linecap="round" stroke-linejoin="round"/>
<path d="M198.451 158.933C199.214 158.201 200.922 156.706 202.936 156.126" stroke="#A2A2CC" stroke-width="2" stroke-miterlimit="10" stroke-linecap="round" stroke-linejoin="round"/>
<path d="M147.654 174.462C150.034 175.774 152.963 176.14 155.617 175.469C159.247 174.584 162.329 172.052 164.312 168.91C165.044 167.72 165.685 166.408 166.692 165.432C167.18 164.974 167.79 164.608 168.461 164.394" stroke="#A2A2CC" stroke-width="2" stroke-miterlimit="10" stroke-linecap="round" stroke-linejoin="round"/>
<path d="M152.383 166.591C152.322 166.499 152.23 166.377 152.169 166.286C151.224 164.943 150.125 163.54 148.508 163.113C146.312 162.533 143.963 164.272 143.414 166.469C142.925 168.391 143.566 170.435 144.756 172.021" stroke="#A2A2CC" stroke-width="2" stroke-miterlimit="10" stroke-linecap="round" stroke-linejoin="round"/>
<path d="M159.339 169.489C158.18 169.977 156.837 170.13 155.678 169.703C154.275 169.184 153.298 167.872 152.414 166.591" stroke="#A2A2CC" stroke-width="2" stroke-miterlimit="10" stroke-linecap="round" stroke-linejoin="round"/>
<path d="M168.614 162.167C167.607 162.106 166.234 162.503 165.624 162.899C164.708 163.51 164.098 164.486 163.519 165.432C162.817 166.53 162.024 167.598 161.047 168.421" stroke="#A2A2CC" stroke-width="2" stroke-miterlimit="10" stroke-linecap="round" stroke-linejoin="round"/>
<path d="M204.095 151.672C203.912 153.228 203.424 154.723 202.722 156.065" stroke="#D6B218" stroke-width="2" stroke-miterlimit="10" stroke-linecap="round" stroke-linejoin="round"/>
<path d="M204.186 150.086C204.186 150.635 204.156 151.154 204.095 151.672" stroke="#D6B218" stroke-width="2" stroke-miterlimit="10" stroke-linecap="round" stroke-linejoin="round"/>
<path d="M193.752 134.862C200.647 135.93 206.047 141.483 206.902 148.408" stroke="white" stroke-width="2" stroke-miterlimit="10" stroke-linecap="round" stroke-linejoin="round"/>
<path d="M185.759 135.686C187.498 135.045 189.359 134.679 191.312 134.679" stroke="white" stroke-width="2" stroke-miterlimit="10" stroke-linecap="round" stroke-linejoin="round"/>
<path d="M197.841 157.682C198.603 159.208 199.03 160.886 199.091 162.625C199.091 162.96 199.091 163.205 199.091 163.357C199.091 163.449 199.061 163.54 199.03 163.601" stroke="#A2A2CC" stroke-width="2" stroke-miterlimit="10" stroke-linecap="round" stroke-linejoin="round"/>
<path d="M192.959 161.557C192.746 160.52 192.441 159.513 192.105 158.537L191.739 157.438C191.617 157.042 191.525 156.645 191.495 156.218C191.434 155.791 191.525 155.333 191.769 154.937C192.014 154.54 192.38 154.265 192.837 154.113C193.264 153.96 193.722 153.93 194.18 153.991C194.607 154.082 195.003 154.235 195.369 154.479C196.498 155.242 197.23 156.462 197.871 157.652" stroke="#A2A2CC" stroke-width="2" stroke-miterlimit="10" stroke-linecap="round" stroke-linejoin="round"/>
<path d="M192.959 161.557C193.203 162.716 193.325 163.937 193.203 165.096C193.112 165.737 193.02 166.072 193.02 166.072" stroke="#A2A2CC" stroke-width="2" stroke-miterlimit="10" stroke-linecap="round" stroke-linejoin="round"/>
<path d="M174.41 155.242C174.685 156.188 174.593 157.286 174.441 158.262C174.349 159.055 174.105 159.818 173.739 160.55C173.495 161.008 173.22 161.435 172.915 161.801C172.793 161.923 172.702 162.015 172.641 162.076L172.549 162.167" stroke="#A2A2CC" stroke-width="2" stroke-miterlimit="10" stroke-linecap="round" stroke-linejoin="round"/>
<path d="M176.79 155.394C175.997 155.364 175.203 155.303 174.41 155.242" stroke="#A2A2CC" stroke-width="2" stroke-miterlimit="10" stroke-linecap="round" stroke-linejoin="round"/>
<path d="M188.505 155.059C185.18 155.425 181.824 155.547 178.468 155.455" stroke="#A2A2CC" stroke-width="2" stroke-miterlimit="10" stroke-linecap="round" stroke-linejoin="round"/>
<path d="M185.027 164.089C184.814 163.449 184.569 162.838 184.264 162.259C183.624 161.008 182.739 159.879 181.671 158.964L181.488 158.811H181.732C183.38 158.75 185.027 158.262 186.43 157.377C187.315 156.798 187.986 156.035 188.505 155.12" stroke="#A2A2CC" stroke-width="2" stroke-miterlimit="10" stroke-linecap="round" stroke-linejoin="round"/>
<path d="M185.546 167.689C185.576 167.11 185.546 166.499 185.485 165.92C185.393 165.279 185.271 164.669 185.058 164.059" stroke="#A2A2CC" stroke-width="2" stroke-miterlimit="10" stroke-linecap="round" stroke-linejoin="round"/>
<path d="M178.712 174.493C179.23 174.462 179.749 174.401 180.268 174.279C181.671 173.882 182.891 173.089 183.807 171.96C184.478 171.167 184.966 170.252 185.271 169.276" stroke="#A2A2CC" stroke-width="2" stroke-miterlimit="10" stroke-linecap="round" stroke-linejoin="round"/>
<path d="M214.254 157.164C214.651 157.194 213.308 158.567 212.759 159.177C212.576 159.452 212.271 159.635 211.966 159.696C211.691 159.696 211.447 159.604 211.234 159.421C210.685 159.055 210.197 158.598 209.8 158.079L209.708 157.957C209.678 157.957 213.4 157.133 214.254 157.164Z" fill="#C3C3E5"/>
<path d="M212.79 168.391C213.705 169.032 214.62 169.672 215.231 170.587C215.444 170.893 215.597 171.32 215.414 171.625C215.231 171.838 214.956 171.96 214.681 171.991C213.308 172.174 211.905 171.96 210.685 171.35C210.776 171.076 210.898 170.801 211.02 170.526C211.417 169.703 212.088 168.91 212.79 168.391Z" fill="#C3C3E5"/>
<path d="M191.708 155.059C191.708 155.059 192.563 155.791 192.959 156.92" stroke="#A2A2CC" stroke-width="2" stroke-miterlimit="10" stroke-linecap="round" stroke-linejoin="round"/>
<path d="M192.654 154.327C192.654 154.327 193.508 155.059 193.905 156.188" stroke="#A2A2CC" stroke-width="2" stroke-miterlimit="10" stroke-linecap="round" stroke-linejoin="round"/>
<path d="M193.875 153.991C193.875 153.991 194.729 154.723 195.125 155.852" stroke="#A2A2CC" stroke-width="2" stroke-miterlimit="10" stroke-linecap="round" stroke-linejoin="round"/>
<path d="M201.624 162.106C202.417 164.394 202.722 166.957 202.386 169.337C202.325 169.764 202.234 170.191 202.142 170.588" stroke="#A2A2CC" stroke-width="2" stroke-miterlimit="10" stroke-linecap="round" stroke-linejoin="round"/>
<path d="M201.624 162.106C201.624 164.486 201.075 166.957 199.976 169.093C199.763 169.489 199.519 169.886 199.275 170.282" stroke="#A2A2CC" stroke-width="2" stroke-miterlimit="10" stroke-linecap="round" stroke-linejoin="round"/>
<path d="M201.532 162.106C201.532 162.106 202.508 166.713 199.946 173.181" stroke="#A2A2CC" stroke-width="2" stroke-miterlimit="10" stroke-linecap="round" stroke-linejoin="round"/>
<path d="M202.386 150.696C202.997 152.893 202.844 155.242 202.356 157.438C202.234 158.018 202.081 158.628 201.898 159.177" stroke="#A2A2CC" stroke-width="2" stroke-miterlimit="10" stroke-linecap="round" stroke-linejoin="round"/>
<path d="M201.807 159.177C201.807 159.177 202.356 156.554 201.532 152.496" stroke="#A2A2CC" stroke-width="2" stroke-miterlimit="10" stroke-linecap="round" stroke-linejoin="round"/>
<path d="M204.614 159.208C205.035 159.208 205.376 158.866 205.376 158.445C205.376 158.024 205.035 157.682 204.614 157.682C204.192 157.682 203.851 158.024 203.851 158.445C203.851 158.866 204.192 159.208 204.614 159.208Z" fill="#D6B218"/>
<path d="M204.186 164.272C204.608 164.272 204.949 163.931 204.949 163.51C204.949 163.088 204.608 162.747 204.186 162.747C203.765 162.747 203.424 163.088 203.424 163.51C203.424 163.931 203.765 164.272 204.186 164.272Z" fill="#D6B218"/>
<path d="M233.902 155.15C237.136 156.127 239.973 157.225 242.383 158.415C253.397 163.906 255.044 171.228 255.044 175.133C255.044 178.55 253.763 184.621 246.014 189.747" stroke="#C3C3E5" stroke-width="2" stroke-miterlimit="10" stroke-linecap="round" stroke-linejoin="round"/>
<path d="M66.2271 94.5603C67.5695 90.6247 69.0034 86.7196 70.8034 82.9671C71.1695 82.2044 71.5356 81.4417 71.9322 80.7095" stroke="#A2A2CC" stroke-width="2" stroke-miterlimit="10" stroke-linecap="round" stroke-linejoin="round"/>
<path d="M42.7051 97.1842C43.9559 99.8994 47.2508 101.089 49.9966 99.8689C52.7729 98.6486 53.9932 95.4452 52.7424 92.7299C51.4915 90.0147 44.6881 81.2893 41.9119 82.5096C39.1356 83.7299 41.4542 94.4689 42.7051 97.1842Z" stroke="#FF6C7D" stroke-width="2" stroke-miterlimit="10" stroke-linecap="round" stroke-linejoin="round"/>
<path d="M35.3221 94.5299C36.5729 97.2451 42.0644 97.4587 47.5865 94.9875C53.1085 92.5468 56.5255 88.3672 55.2746 85.6519C54.0238 82.9366 39.5017 77.6282 39.5017 77.6282C39.5017 77.6282 34.0407 91.8146 35.3221 94.5299Z" stroke="#FF6C7D" stroke-width="2" stroke-miterlimit="10" stroke-linecap="round" stroke-linejoin="round"/>
<path d="M47.4339 95.0791L43.1932 90.5944" stroke="#FF6C7D" stroke-width="2" stroke-miterlimit="10" stroke-linecap="round" stroke-linejoin="round"/>
<path d="M47.4339 95.079L47.4949 88.6417" stroke="#FF6C7D" stroke-width="2" stroke-miterlimit="10" stroke-linecap="round" stroke-linejoin="round"/>
<path d="M49.7831 99.9298C51.0034 102.035 52.0102 104.262 52.956 106.489C54.2373 109.479 55.3356 112.56 56.2509 115.672" stroke="#A2A2CC" stroke-width="2" stroke-miterlimit="10" stroke-linecap="round" stroke-linejoin="round"/>
<path d="M57.5932 121.469C57.2576 119.516 56.8 117.564 56.2813 115.703" stroke="#A2A2CC" stroke-width="2" stroke-miterlimit="10" stroke-linecap="round" stroke-linejoin="round"/>
<path d="M245.037 54.3807V62.7705C245.037 65.7298 242.627 68.1705 239.637 68.1705H202.234C199.275 68.1705 196.834 65.7604 196.834 62.7705V7.30613C196.864 4.3163 199.275 1.90613 202.234 1.90613H205.925H212.942H239.637C242.597 1.90613 245.037 4.3163 245.037 7.30613V48.7976V54.3807V54.3807Z" stroke="#C3C3E5" stroke-width="2" stroke-miterlimit="10" stroke-linecap="round" stroke-linejoin="round"/>
<path d="M204.491 38.2418V60.5435H237.41V9.53333H204.491V29.4554V38.2418Z" stroke="#C3C3E5" stroke-width="2" stroke-miterlimit="10" stroke-linecap="round" stroke-linejoin="round"/>
<path d="M204.491 9.53333L236.983 36.3808L204.491 60.5435" stroke="#C3C3E5" stroke-width="2" stroke-miterlimit="10" stroke-linecap="round" stroke-linejoin="round"/>
<path d="M57.9288 58.2553V64.296C57.9288 66.4316 56.1898 68.1706 54.0542 68.1706H27.1762C25.0407 68.1706 23.3017 66.4316 23.3017 64.296V24.4215C23.3017 22.2859 25.0407 20.5469 27.1762 20.5469H29.8305H34.8644H54.0542C56.1898 20.5469 57.9288 22.2859 57.9288 24.4215V54.2282V58.2553Z" stroke="#C3C3E5" stroke-width="2" stroke-miterlimit="10" stroke-linecap="round" stroke-linejoin="round"/>
<path d="M28.7932 46.6621V62.679H52.4373V26.0383H28.7932V40.3468V46.6621Z" stroke="#C3C3E5" stroke-width="2" stroke-miterlimit="10" stroke-linecap="round" stroke-linejoin="round"/>
<path d="M28.7932 26.0383L52.4373 44.3739L28.7932 62.679" stroke="#C3C3E5" stroke-width="2" stroke-miterlimit="10" stroke-linecap="round" stroke-linejoin="round"/>
<path d="M205.803 107.893H248.027" stroke="#7A79A1" stroke-width="2" stroke-miterlimit="10" stroke-linecap="round" stroke-linejoin="round"/>
<path d="M182.647 115.032H240.125" stroke="#7A79A1" stroke-width="2" stroke-miterlimit="10" stroke-linecap="round" stroke-linejoin="round"/>
<path d="M251.566 107.893H262" stroke="#7A79A1" stroke-width="2" stroke-miterlimit="10" stroke-linecap="round" stroke-linejoin="round"/>
<path d="M185.027 107.893H202.691" stroke="#7A79A1" stroke-width="2" stroke-miterlimit="10" stroke-linecap="round" stroke-linejoin="round"/>
<path d="M42.2474 107.343H48.8067" stroke="#7A79A1" stroke-width="2" stroke-miterlimit="10" stroke-linecap="round" stroke-linejoin="round"/>
<path d="M21.1356 114.452H49.7831" stroke="#7A79A1" stroke-width="2" stroke-miterlimit="10" stroke-linecap="round" stroke-linejoin="round"/>
<path d="M1 107.343H38.861" stroke="#7A79A1" stroke-width="2" stroke-miterlimit="10" stroke-linecap="round" stroke-linejoin="round"/>
<path d="M41.6373 133.977L42.2475 138.615L46.2441 168.971C46.2441 171.289 48.2881 173.181 50.7593 173.181H52.2848H58.9661H71.3831C73.8848 173.181 75.8983 171.289 75.8983 168.971L77.7898 152.954L78.1864 149.628L80.2 132.513" stroke="#A2A2CC" stroke-width="2" stroke-miterlimit="10" stroke-linecap="round" stroke-linejoin="round"/>
<path d="M135.451 178.764C139.814 180.991 144.573 182.333 149.363 183.249C149.393 183.249 149.424 183.249 149.424 183.249C154.427 184.194 159.491 184.835 164.556 185.293C169.651 185.75 174.776 185.994 179.902 186.086C181.519 186.116 183.136 186.147 184.722 186.147C192.959 186.147 200.708 185.75 207.634 185.018" stroke="#C3C3E5" stroke-width="2" stroke-miterlimit="10" stroke-linecap="round" stroke-linejoin="round"/>
<path d="M66.227 94.5909L65.1897 98.3435C64.3355 101.852 63.7253 105.574 63.7253 109.205C63.7253 114.605 65.4033 118.143 67.4169 121.499" stroke="#A2A2CC" stroke-width="2" stroke-miterlimit="10" stroke-linecap="round" stroke-linejoin="round"/>
<path d="M76.0508 121.469C72.6644 114.269 70.1627 106.337 68.8203 97.8553" stroke="#7A79A1" stroke-width="2" stroke-miterlimit="10" stroke-linecap="round" stroke-linejoin="round"/>
<path d="M117.909 157.53C111.044 156.096 104.576 153.137 98.8407 149.14C97.3458 148.103 95.8814 147.035 94.478 145.906" stroke="#7A79A1" stroke-width="2" stroke-miterlimit="10" stroke-linecap="round" stroke-linejoin="round"/>
<path d="M159.736 147.34C150.522 154.479 139.661 158.598 128.037 158.598C125.932 158.598 123.858 158.476 121.814 158.201" stroke="#7A79A1" stroke-width="2" stroke-miterlimit="10" stroke-linecap="round" stroke-linejoin="round"/>
<path d="M187.986 91.8757C187.346 98.8927 185.881 105.818 183.624 112.469C179.414 124.886 172.305 136.449 162.39 145.113C161.505 145.876 160.62 146.608 159.705 147.31" stroke="#7A79A1" stroke-width="2" stroke-miterlimit="10" stroke-linecap="round" stroke-linejoin="round"/>
<path d="M107.627 11.8214C114.003 8.95364 120.868 7.39771 128.007 7.39771C136.976 7.39771 146.129 9.80787 153.725 14.5977C157.631 17.0689 161.322 19.8452 164.709 22.9875C168.247 26.313 171.359 30.0655 174.075 34.0926C176.363 37.5096 178.407 41.0791 180.146 44.8011C186.186 57.7062 188.841 72.1367 188.353 86.3536C188.292 88.1841 188.17 90.0146 187.986 91.8452" stroke="#7A79A1" stroke-width="2" stroke-miterlimit="10" stroke-linecap="round" stroke-linejoin="round"/>
<path d="M81.0238 35.5265C81.7255 34.4282 82.4577 33.3604 83.2204 32.3231L85.417 29.4248C89.4136 24.4519 93.9289 20.1807 98.9017 16.7333" stroke="#7A79A1" stroke-width="2" stroke-miterlimit="10" stroke-linecap="round" stroke-linejoin="round"/>
<path d="M41.6372 133.977L40.5389 125.649C40.5389 123.33 42.583 121.438 45.0542 121.438H76.5084C79.0101 121.438 81.0237 123.33 81.0237 125.649L80.2 132.482" stroke="#A2A2CC" stroke-width="2" stroke-miterlimit="10" stroke-linecap="round" stroke-linejoin="round"/>
<path d="M79.2542 78.0858C78.0033 80.801 74.7084 81.9909 71.9627 80.7705C69.1864 79.5502 67.966 76.3468 69.2169 73.6315C70.4677 70.9163 77.2711 62.1909 80.0474 63.4112C82.7932 64.6315 80.505 75.3705 79.2542 78.0858Z" stroke="#FF6C7D" stroke-width="2" stroke-miterlimit="10" stroke-linecap="round" stroke-linejoin="round"/>
<path d="M86.6372 75.4315C85.3864 78.1467 79.8949 78.3603 74.3728 75.8891C68.8508 73.4484 65.4338 69.2688 66.6847 66.5535C67.9355 63.8383 82.4576 58.5298 82.4576 58.5298C82.4576 58.5298 87.8881 72.7162 86.6372 75.4315Z" stroke="#FF6C7D" stroke-width="2" stroke-miterlimit="10" stroke-linecap="round" stroke-linejoin="round"/>
<path d="M74.495 75.9807L78.7662 71.496" stroke="#FF6C7D" stroke-width="2" stroke-miterlimit="10" stroke-linecap="round" stroke-linejoin="round"/>
<path d="M74.4949 75.9807L74.4644 69.5435" stroke="#FF6C7D" stroke-width="2" stroke-miterlimit="10" stroke-linecap="round" stroke-linejoin="round"/>
<path opacity="0.7" d="M45.0847 137.974L48.8678 166.713C48.8678 168.604 50.5457 170.16 52.5898 170.16H53.8406H59.3017H69.4915C71.5356 170.16 73.2135 168.604 73.2135 166.713C62.5966 164.76 53.6576 157.682 49.3559 147.798L45.0847 137.974Z" fill="white"/>
<path d="M114.492 117.564L113.149 104.415L113.119 104.201C113.027 103.194 113.363 102.248 113.973 101.577C114.492 101.028 115.193 100.632 115.986 100.51C116.139 100.479 116.322 100.479 116.505 100.479H138.746C139.539 100.479 140.271 100.754 140.851 101.211C141.675 101.852 142.193 102.889 142.132 104.018C142.132 104.079 142.132 104.14 142.132 104.201L140.759 117.564C139.814 118.082 138.99 118.296 137.678 118.906C134.17 120.554 139.631 122.628 139.631 122.628C139.814 122.72 140.027 122.781 140.21 122.872L139.753 127.174C139.57 128.913 138.105 130.225 136.397 130.225H136.153C136.153 130.164 136.122 130.103 136.122 130.072C135.542 127.662 134.078 125.954 132.339 125.954C130.57 125.954 129.075 127.754 128.525 130.255H126.298C125.749 127.754 124.254 125.954 122.485 125.954C120.715 125.954 119.22 127.754 118.671 130.255C116.993 130.194 115.62 128.882 115.437 127.204L114.98 122.903" stroke="#7A79A1" stroke-width="2" stroke-miterlimit="10" stroke-linecap="round" stroke-linejoin="round"/>
<path d="M126.512 132.299C126.512 135.808 124.712 138.645 122.485 138.645C120.654 138.645 119.098 136.693 118.61 134.008C118.519 133.459 118.458 132.91 118.458 132.299C118.458 131.72 118.519 131.14 118.61 130.621C118.641 130.499 118.641 130.377 118.671 130.255C119.22 127.754 120.715 125.954 122.485 125.954C124.254 125.954 125.749 127.754 126.298 130.255C126.359 130.591 126.42 130.926 126.451 131.293C126.512 131.628 126.512 131.964 126.512 132.299Z" fill="#00D9BA" fill-opacity="0.3" stroke="#00D9BA" stroke-width="2" stroke-miterlimit="10" stroke-linecap="round" stroke-linejoin="round"/>
<path d="M136.275 134.404C135.817 136.906 134.17 138.645 132.339 138.615C130.112 138.584 128.312 135.777 128.312 132.269C128.312 131.933 128.342 131.567 128.373 131.262C128.403 130.926 128.464 130.56 128.525 130.255C129.075 127.754 130.57 125.954 132.339 125.954C134.078 125.954 135.542 127.662 136.122 130.072C136.122 130.133 136.153 130.194 136.153 130.225C136.305 130.865 136.305 131.567 136.366 132.269C136.427 133.032 136.397 133.764 136.275 134.404Z" fill="#00D9BA" fill-opacity="0.3" stroke="#00D9BA" stroke-width="2" stroke-miterlimit="10" stroke-linecap="round" stroke-linejoin="round"/>
<path d="M146.769 111.859C143.505 115.55 142.01 116.862 140.729 117.564C139.783 118.082 138.959 118.296 137.647 118.937C134.139 120.584 139.6 122.659 139.6 122.659C139.783 122.75 139.997 122.842 140.18 122.903C142.712 123.818 145.397 123.086 145.854 122.964C145.885 122.964 145.915 122.933 145.915 122.933" stroke="#00D9BA" stroke-width="2" stroke-miterlimit="10" stroke-linecap="round" stroke-linejoin="round"/>
<path d="M108.451 111.859C111.715 115.55 113.21 116.832 114.492 117.564C114.644 117.655 114.797 117.716 114.919 117.777C115.712 118.144 116.475 118.388 117.573 118.906C119.953 120.035 118.183 121.347 116.81 122.079C116.17 122.415 115.62 122.628 115.62 122.628C115.437 122.72 115.224 122.811 115.041 122.872C112.264 123.849 109.336 122.903 109.336 122.903" stroke="#00D9BA" stroke-width="2" stroke-miterlimit="10" stroke-linecap="round" stroke-linejoin="round"/>
<path opacity="0.7" d="M87.2475 57.34C86.9424 57.6146 86.4543 57.3095 86.5763 56.9129C89.2611 49.1942 93.3492 41.8112 99.0848 35.801C101.739 33.0248 104.698 30.5231 107.993 28.4485C111.624 26.1298 115.59 24.3909 119.831 23.4756C124.224 22.5298 128.831 22.3773 133.285 22.9875C137.464 23.5366 141.553 25.1536 145.214 27.1976C148.509 29.0281 151.529 31.2858 154.244 33.879C155.77 35.3129 157.173 36.8688 158.515 38.4858C160.468 40.8654 162.268 43.4587 163.824 46.2044C164.007 46.54 163.641 46.9366 163.275 46.7536L151.01 40.7129C133.285 31.9875 111.868 34.9468 97.3458 48.157L87.2475 57.34Z" fill="white"/>
<path opacity="0.7" d="M154.793 144.076C155.8 143.832 156.349 145.174 155.495 145.723C147.136 151.093 135.939 154.266 127.793 154.266C125.871 154.266 123.949 154.144 122.058 153.93L118.458 153.381C112.142 152.16 106.163 149.659 100.885 146.242L100.854 146.211C100 145.662 100.58 144.32 101.556 144.564L112.875 147.188C122.302 149.384 132.064 149.384 141.492 147.188L154.793 144.076Z" fill="white"/>
</svg>
