<svg width="80" height="80" viewBox="0 0 80 80" fill="none" xmlns="http://www.w3.org/2000/svg">
<path d="M40.1723 1.92V36.475" stroke="#505071" stroke-width="2" stroke-miterlimit="10" stroke-linecap="round" stroke-linejoin="round"/>
<path d="M44.2822 55.8232L50.9213 61.4506C52.0911 62.3991 52.755 63.8217 52.755 65.3392V78.08" stroke="#505071" stroke-width="2" stroke-miterlimit="10" stroke-linecap="round" stroke-linejoin="round"/>
<path d="M36.0624 55.8232L29.4233 61.4506C28.2535 62.3991 27.5896 63.8217 27.5896 65.3392V78.08" stroke="#505071" stroke-width="2" stroke-miterlimit="10" stroke-linecap="round" stroke-linejoin="round"/>
<path d="M48.0444 66.5406V69.2279V78.0484" stroke="#505071" stroke-width="2" stroke-miterlimit="10" stroke-linecap="round" stroke-linejoin="round"/>
<path d="M32.3002 66.5406V69.2279V78.0484" stroke="#505071" stroke-width="2" stroke-miterlimit="10" stroke-linecap="round" stroke-linejoin="round"/>
<path d="M48.0127 50.3503C48.7341 46.0274 45.8144 41.9381 41.4915 41.2168C37.1685 40.4954 33.0793 43.4151 32.358 47.738C31.6366 52.0609 34.5562 56.1502 38.8792 56.8715C43.2021 57.5929 47.2914 54.6732 48.0127 50.3503Z" stroke="#505071" stroke-width="2" stroke-miterlimit="10" stroke-linecap="round" stroke-linejoin="round"/>
<path d="M40.1723 53.4837C37.7063 53.4837 35.7146 51.492 35.7146 49.026C35.7146 46.5601 37.7063 44.5683 40.1723 44.5683C42.6382 44.5683 44.63 46.5601 44.63 49.026C44.63 51.492 42.6066 53.4837 40.1723 53.4837Z" fill="#00D9BA"/>
<path d="M60.7535 50.1009C58.375 50.1009 56.4539 48.1798 56.4539 45.8013C56.4539 43.4228 58.375 41.5017 60.7535 41.5017C63.132 41.5017 65.0531 43.4228 65.0531 45.8013C65.0531 48.1798 63.1015 50.1009 60.7535 50.1009Z" fill="#D6B218"/>
<path d="M19.3382 50.1009C16.9596 50.1009 15.0385 48.1798 15.0385 45.8013C15.0385 43.4228 16.9596 41.5017 19.3382 41.5017C21.7167 41.5017 23.6378 43.4228 23.6378 45.8013C23.6378 48.1798 21.6862 50.1009 19.3382 50.1009Z" fill="#FF6C7D"/>
<path d="M7.07159 35.0523C7.07159 16.7789 21.8673 1.92 40.1723 1.92C58.4772 1.92 73.2729 16.8422 73.2729 35.1155" stroke="#505071" stroke-width="2" stroke-miterlimit="10" stroke-linecap="round" stroke-linejoin="round"/>
<path d="M30.6246 9.50755C26.4198 14.5975 22.4048 22.6593 22.4048 35.0207" stroke="#505071" stroke-width="2" stroke-miterlimit="10" stroke-linecap="round" stroke-linejoin="round"/>
<path d="M40.1723 20.8256C21.8989 20.8256 17.1567 11.2464 17.1567 11.2464" stroke="#505071" stroke-width="2" stroke-miterlimit="10" stroke-linecap="round" stroke-linejoin="round"/>
<path d="M49.72 9.50755C53.9247 14.5975 57.9082 22.6909 57.9082 35.0207" stroke="#505071" stroke-width="2" stroke-miterlimit="10" stroke-linecap="round" stroke-linejoin="round"/>
<path d="M40.1723 20.8256C58.4456 20.8256 63.1879 11.2464 63.1879 11.2464" stroke="#505071" stroke-width="2" stroke-miterlimit="10" stroke-linecap="round" stroke-linejoin="round"/>
<path d="M8.3046 44.1258C7.48262 41.2488 7.04001 38.1822 7.04001 35.0523" stroke="#505071" stroke-width="2" stroke-miterlimit="10" stroke-linecap="round" stroke-linejoin="round"/>
<path d="M73.273 35.0523C73.273 38.1822 72.8304 41.2172 72.0084 44.1258" stroke="#505071" stroke-width="2" stroke-miterlimit="10" stroke-linecap="round" stroke-linejoin="round"/>
<path d="M15.6076 52.061L9.53758 57.2143C8.46268 58.0995 7.862 59.3957 7.862 60.7867V72.421" stroke="#505071" stroke-width="2" stroke-miterlimit="10" stroke-linecap="round" stroke-linejoin="round"/>
<path d="M23.1635 52.061L29.2336 57.2143" stroke="#505071" stroke-width="2" stroke-miterlimit="10" stroke-linecap="round" stroke-linejoin="round"/>
<path d="M12.1932 61.8932L12.1616 64.3592V72.421" stroke="#505071" stroke-width="2" stroke-miterlimit="10" stroke-linecap="round" stroke-linejoin="round"/>
<path d="M26.0589 48.6505C27.5891 44.9563 25.8349 40.7212 22.1407 39.191C18.4466 37.6608 14.2114 39.415 12.6812 43.1092C11.151 46.8033 12.9052 51.0385 16.5994 52.5687C20.2935 54.0989 24.5287 52.3446 26.0589 48.6505Z" stroke="#505071" stroke-width="2" stroke-miterlimit="10" stroke-linecap="round" stroke-linejoin="round"/>
<path d="M64.5473 52.061L70.6173 57.2143C71.6922 58.0995 72.2929 59.3957 72.2929 60.7867V72.421" stroke="#505071" stroke-width="2" stroke-miterlimit="10" stroke-linecap="round" stroke-linejoin="round"/>
<path d="M56.9913 52.061L50.9213 57.2143" stroke="#505071" stroke-width="2" stroke-miterlimit="10" stroke-linecap="round" stroke-linejoin="round"/>
<path d="M67.9617 61.8932V64.3592V72.421" stroke="#505071" stroke-width="2" stroke-miterlimit="10" stroke-linecap="round" stroke-linejoin="round"/>
<path d="M67.8476 47.3358C68.6517 43.4189 66.1283 39.5918 62.2114 38.7877C58.2945 37.9837 54.4675 40.5071 53.6634 44.4239C52.8593 48.3408 55.3827 52.1678 59.2996 52.9719C63.2164 53.776 67.0435 51.2526 67.8476 47.3358Z" stroke="#505071" stroke-width="2" stroke-miterlimit="10" stroke-linecap="round" stroke-linejoin="round"/>
</svg>
