<svg width="80" height="80" viewBox="0 0 80 80" fill="none" xmlns="http://www.w3.org/2000/svg">
<path d="M55.5089 19.4931L59.9754 15.0266L55.5089 10.56" stroke="#FF6C7D" stroke-width="2" stroke-miterlimit="10" stroke-linecap="round" stroke-linejoin="round"/>
<path d="M57.7421 15.0266H46.4516C43.0397 15.0266 40.2481 17.8182 40.2481 21.2301V34.0094" stroke="#FF6C7D" stroke-width="2" stroke-miterlimit="10" stroke-linecap="round" stroke-linejoin="round"/>
<path d="M27.0965 34.5058L31.5631 30.0392L27.0965 25.5726" stroke="#505071" stroke-width="2" stroke-miterlimit="10" stroke-linecap="round" stroke-linejoin="round"/>
<path d="M29.268 30.0391H17.9775C14.5656 30.0391 11.774 32.8307 11.774 36.2427V49.022" stroke="#505071" stroke-width="2" stroke-miterlimit="10" stroke-linecap="round" stroke-linejoin="round"/>
<path d="M75.7323 65.7717C75.7323 66.2059 75.4222 66.5161 74.9879 66.5161H61.2781C60.8438 66.5161 60.5336 66.2059 60.5336 65.7717V28.4263C60.5336 27.992 60.8438 27.6818 61.2781 27.6818L62.7669 51.9998C63.1391 59.1339 68.5983 64.9652 75.7323 65.7717Z" fill="#00D9BA"/>
<path d="M47.6304 65.7717C47.6304 66.2059 47.3203 66.5161 46.886 66.5161H33.1141C32.6799 66.5161 32.3697 66.2059 32.3697 65.7717V43.1287C32.3697 42.6945 32.6799 42.3843 33.1141 42.3843L33.6724 50.3869C34.2308 58.1413 40.0001 64.4689 47.6304 65.7717Z" fill="#C3C3E5"/>
<path d="M76.5389 24.6421H59.6652C58.6106 24.6421 57.8041 25.4486 57.8041 26.5032V67.5087C57.8041 68.5633 58.6106 69.3697 59.6652 69.3697H76.5389C77.5935 69.3697 78.3999 68.5633 78.3999 67.5087V26.5032C78.3999 25.4486 77.5935 24.6421 76.5389 24.6421Z" stroke="#505071" stroke-width="2" stroke-miterlimit="10" stroke-linecap="round" stroke-linejoin="round"/>
<path d="M19.5282 65.8337C19.5282 66.2679 19.2181 66.5781 18.7838 66.5781H5.01191C4.57766 66.5781 4.26749 66.2679 4.26749 65.8337V58.2033C4.26749 57.769 4.57766 57.4589 5.01191 57.4589C5.94244 61.181 8.92015 63.9726 12.7043 64.655L19.5282 65.8337Z" fill="#C3C3E5"/>
<path d="M48.437 39.5306H31.5633C30.5087 39.5306 29.7022 40.337 29.7022 41.3916V67.5086C29.7022 68.5632 30.5087 69.3697 31.5633 69.3697H48.437C49.4916 69.3697 50.298 68.5632 50.298 67.5086V41.3916C50.298 40.3991 49.4916 39.5306 48.437 39.5306Z" stroke="#505071" stroke-width="2" stroke-miterlimit="10" stroke-linecap="round" stroke-linejoin="round"/>
<path d="M20.3347 54.6052H3.46107C2.40647 54.6052 1.60001 55.4117 1.60001 56.4663V67.5086C1.60001 68.5632 2.40647 69.3697 3.46107 69.3697H20.3347C21.3894 69.3697 22.1958 68.5632 22.1958 67.5086V56.4663C22.1958 55.4737 21.3894 54.6052 20.3347 54.6052Z" stroke="#505071" stroke-width="2" stroke-miterlimit="10" stroke-linecap="round" stroke-linejoin="round"/>
</svg>
