<svg width="80" height="80" viewBox="0 0 80 80" fill="none" xmlns="http://www.w3.org/2000/svg">
<path d="M51.964 49.0963L56.9942 50.7377L58.5827 45.7075" stroke="#505071" stroke-width="2" stroke-miterlimit="10" stroke-linecap="round" stroke-linejoin="round"/>
<path d="M56.9413 50.7377L50.852 38.718" stroke="#505071" stroke-width="2" stroke-miterlimit="10" stroke-linecap="round" stroke-linejoin="round"/>
<path d="M75.3561 67.484C76.526 61.4552 72.5871 55.6196 66.5584 54.4497C60.5296 53.2798 54.6939 57.2187 53.5241 63.2474C52.3542 69.2762 56.2931 75.1119 62.3218 76.2818C68.3506 77.4516 74.1862 73.5127 75.3561 67.484Z" stroke="#505071" stroke-width="2" stroke-miterlimit="10" stroke-linecap="round" stroke-linejoin="round"/>
<path d="M70.8837 67.4566C72.0403 63.8965 70.0919 60.0728 66.5318 58.9162C62.9716 57.7595 59.1479 59.708 57.9913 63.2681C56.8346 66.8282 58.7831 70.6519 62.3432 71.8085C65.9033 72.9652 69.727 71.0168 70.8837 67.4566Z" fill="#00D9BA"/>
<path d="M48.7869 18.1734H30.8897C29.9896 18.1734 29.3012 18.8618 29.3012 19.7619V31.5168C29.3012 32.417 29.9896 33.1053 30.8897 33.1053H48.8398C49.74 33.1053 50.4283 32.417 50.4283 31.5168V19.7619C50.3754 18.8618 49.687 18.1734 48.7869 18.1734Z" stroke="#505071" stroke-width="2" stroke-miterlimit="10" stroke-linecap="round" stroke-linejoin="round"/>
<path d="M31.0488 30.8285V21.774C32.6903 26.3277 36.7145 29.5577 41.48 30.246L48.5223 31.305H31.5253C31.2606 31.2521 31.0488 31.0932 31.0488 30.8285Z" fill="#FF6C7D"/>
<path d="M48.0458 9.80727C48.0458 5.25356 44.3922 1.60001 39.8385 1.60001C35.2848 1.60001 31.6312 5.25356 31.6312 9.80727V17.9086" stroke="#505071" stroke-width="2" stroke-miterlimit="10" stroke-linecap="round" stroke-linejoin="round"/>
<path d="M27.7129 49.0962L22.6826 50.7377L21.0941 45.7074" stroke="#505071" stroke-width="2" stroke-miterlimit="10" stroke-linecap="round" stroke-linejoin="round"/>
<path d="M22.7355 50.7377L28.8248 38.718" stroke="#505071" stroke-width="2" stroke-miterlimit="10" stroke-linecap="round" stroke-linejoin="round"/>
<path d="M17.3926 76.2631C23.4213 75.0932 27.3602 69.2575 26.1903 63.2288C25.0204 57.2 19.1848 53.2611 13.156 54.431C7.12727 55.6009 3.18838 61.4365 4.35827 67.4653C5.52815 73.4941 11.3638 77.433 17.3926 76.2631Z" stroke="#505071" stroke-width="2" stroke-miterlimit="10" stroke-linecap="round" stroke-linejoin="round"/>
<path d="M17.3687 71.7932C20.9289 70.6366 22.8773 66.8129 21.7206 63.2527C20.564 59.6926 16.7403 57.7442 13.1802 58.9008C9.62004 60.0575 7.67163 63.8812 8.82827 67.4413C9.98491 71.0014 13.8086 72.9498 17.3687 71.7932Z" fill="#C3C3E5"/>
</svg>
