<svg width="80" height="80" viewBox="0 0 80 80" fill="none" xmlns="http://www.w3.org/2000/svg">
<path d="M31.1365 23.6188C31.0052 23.8486 30.9067 24.1769 30.9067 24.538V28.7071C33.5657 30.6768 36.6516 31.6944 39.9343 31.6944C43.8409 31.6944 46.8938 30.2172 48.962 28.7071V24.538C48.962 24.1769 48.8963 23.8486 48.7322 23.6188C46.2045 26.0809 43.1515 27.4925 39.9015 27.4925C36.7172 27.5253 33.6642 26.0809 31.1365 23.6188Z" fill="#00D9BA"/>
<path d="M7.04084 65.5729C6.90953 65.8026 6.81104 66.1309 6.81104 66.492V70.6612C9.4701 72.6308 12.5559 73.6485 15.8387 73.6485C19.7452 73.6485 22.7982 72.1712 24.8663 70.6612V66.492C24.8663 66.1309 24.8007 65.8026 24.6365 65.5729C22.1088 68.0349 19.0558 69.4465 15.8059 69.4465C12.6216 69.4794 9.56858 68.0349 7.04084 65.5729Z" fill="#FF6C7D"/>
<path d="M55.2978 65.5729C55.1665 65.8026 55.068 66.1309 55.068 66.492V70.6612C57.727 72.6308 60.8129 73.6485 64.0956 73.6485C68.0022 73.6485 71.0551 72.1712 73.1233 70.6612V66.492C73.1233 66.1309 73.0576 65.8026 72.8935 65.5729C70.3658 68.0349 67.3128 69.4465 64.0628 69.4465C60.8785 69.4794 57.8255 68.0349 55.2978 65.5729Z" fill="#D6B218"/>
<path d="M40 48.8305L31.4648 57.3658" stroke="#505071" stroke-width="2" stroke-miterlimit="10" stroke-linecap="round" stroke-linejoin="round"/>
<path d="M40 39.4089V48.8305L48.4367 57.2672" stroke="#505071" stroke-width="2" stroke-miterlimit="10" stroke-linecap="round" stroke-linejoin="round"/>
<path d="M20.3689 57.8584C20.3689 57.8584 24.8663 60.3204 26.6391 61.732C27.0658 62.0603 27.3941 62.4871 27.6895 62.9467C28.2148 63.8002 28.4774 64.785 28.4774 65.7699V71.646C25.0961 74.6005 20.6972 76.5045 15.8387 76.5045C10.9145 76.5045 6.58126 74.6662 3.2 71.6132V65.737C3.2 64.7522 3.42979 63.7345 3.98786 62.9138C4.28331 62.4542 4.61159 62.0603 5.03835 61.6992C6.77823 60.2876 11.3085 57.8255 11.3085 57.8255" stroke="#505071" stroke-width="2" stroke-miterlimit="10" stroke-linecap="round" stroke-linejoin="round"/>
<path d="M15.8386 60.222C19.3558 60.222 22.2072 56.6799 22.2072 52.3105C22.2072 47.9411 19.3558 44.399 15.8386 44.399C12.3213 44.399 9.46997 47.9411 9.46997 52.3105C9.46997 56.6799 12.3213 60.222 15.8386 60.222Z" stroke="#505071" stroke-width="2" stroke-miterlimit="10" stroke-linecap="round" stroke-linejoin="round"/>
<path d="M68.6916 57.8585C68.6916 57.8585 73.189 60.3206 74.9617 61.7322C75.3884 62.0604 75.7167 62.4872 76.0122 62.9468C76.5374 63.8003 76.8 64.7851 76.8 65.77V71.6462C73.4188 74.6335 69.0198 76.5375 64.1613 76.5375C59.2371 76.5375 54.9039 74.6991 51.5226 71.6462V65.77C51.5226 64.7851 51.7524 63.7675 52.3105 62.9468C52.6059 62.4872 52.9342 62.0933 53.361 61.7322C55.1008 60.3206 59.6311 57.8585 59.6311 57.8585" stroke="#505071" stroke-width="2" stroke-miterlimit="10" stroke-linecap="round" stroke-linejoin="round"/>
<path d="M64.1284 60.2221C67.6457 60.2221 70.497 56.68 70.497 52.3106C70.497 47.9412 67.6457 44.3991 64.1284 44.3991C60.6111 44.3991 57.7598 47.9412 57.7598 52.3106C57.7598 56.68 60.6111 60.2221 64.1284 60.2221Z" stroke="#505071" stroke-width="2" stroke-miterlimit="10" stroke-linecap="round" stroke-linejoin="round"/>
<path d="M44.4973 16.6594C44.4973 16.6594 48.9947 19.1215 50.7674 20.5331C51.1942 20.8613 51.5225 21.2881 51.8179 21.7477C52.3432 22.6012 52.6058 23.5861 52.6058 24.5709V30.4471C49.2245 33.4344 44.8256 35.3384 39.9671 35.3384C35.0429 35.3384 30.7096 33.5001 27.3284 30.4471V24.5381C27.3284 23.5532 27.5582 22.5356 28.1162 21.7149C28.4117 21.2553 28.74 20.8613 29.1667 20.5002C30.9066 19.0886 35.4368 16.6266 35.4368 16.6266" stroke="#505071" stroke-width="2" stroke-miterlimit="10" stroke-linecap="round" stroke-linejoin="round"/>
<path d="M39.9671 19.023C43.4844 19.023 46.3357 15.4809 46.3357 11.1115C46.3357 6.7421 43.4844 3.2 39.9671 3.2C36.4498 3.2 33.5985 6.7421 33.5985 11.1115C33.5985 15.4809 36.4498 19.023 39.9671 19.023Z" stroke="#505071" stroke-width="2" stroke-miterlimit="10" stroke-linecap="round" stroke-linejoin="round"/>
</svg>
