<svg width="299" height="160" viewBox="0 0 299 160" fill="none" xmlns="http://www.w3.org/2000/svg">
<path d="M249.303 137.769H267.148" stroke="#7A79A1" stroke-width="2" stroke-miterlimit="10" stroke-linecap="round" stroke-linejoin="round"/>
<path d="M171.58 137.769H232.483" stroke="#7A79A1" stroke-width="2" stroke-miterlimit="10" stroke-linecap="round" stroke-linejoin="round"/>
<path d="M64.2535 137.769H119.775" stroke="#7A79A1" stroke-width="2" stroke-miterlimit="10" stroke-linecap="round" stroke-linejoin="round"/>
<path d="M35.5158 137.769H46.4086" stroke="#7A79A1" stroke-width="2" stroke-miterlimit="10" stroke-linecap="round" stroke-linejoin="round"/>
<path d="M211.178 158.304H83.2198C82.515 158.304 81.9062 157.728 81.9062 156.991V152.858C81.9062 152.153 82.4829 151.544 83.2198 151.544H211.178C211.883 151.544 212.492 152.121 212.492 152.858V156.991C212.46 157.728 211.883 158.304 211.178 158.304Z" stroke="#C3C3E5" stroke-width="2" stroke-miterlimit="10" stroke-linecap="round" stroke-linejoin="round"/>
<path d="M89.9798 150.552H95.3621" stroke="#C3C3E5" stroke-width="2" stroke-miterlimit="10" stroke-linecap="round" stroke-linejoin="round"/>
<path d="M100.072 150.551H105.454" stroke="#C3C3E5" stroke-width="2" stroke-miterlimit="10" stroke-linecap="round" stroke-linejoin="round"/>
<path d="M110.164 150.551H115.546" stroke="#C3C3E5" stroke-width="2" stroke-miterlimit="10" stroke-linecap="round" stroke-linejoin="round"/>
<path d="M120.255 150.551H125.638" stroke="#C3C3E5" stroke-width="2" stroke-miterlimit="10" stroke-linecap="round" stroke-linejoin="round"/>
<path d="M130.379 150.551H135.762" stroke="#C3C3E5" stroke-width="2" stroke-miterlimit="10" stroke-linecap="round" stroke-linejoin="round"/>
<path d="M140.471 150.551H145.853" stroke="#C3C3E5" stroke-width="2" stroke-miterlimit="10" stroke-linecap="round" stroke-linejoin="round"/>
<path d="M150.563 150.551H155.945" stroke="#C3C3E5" stroke-width="2" stroke-miterlimit="10" stroke-linecap="round" stroke-linejoin="round"/>
<path d="M160.655 150.551H166.037" stroke="#C3C3E5" stroke-width="2" stroke-miterlimit="10" stroke-linecap="round" stroke-linejoin="round"/>
<path d="M170.747 150.551H176.129" stroke="#C3C3E5" stroke-width="2" stroke-miterlimit="10" stroke-linecap="round" stroke-linejoin="round"/>
<path d="M180.839 150.551H186.221" stroke="#C3C3E5" stroke-width="2" stroke-miterlimit="10" stroke-linecap="round" stroke-linejoin="round"/>
<path d="M190.93 150.551H196.313" stroke="#C3C3E5" stroke-width="2" stroke-miterlimit="10" stroke-linecap="round" stroke-linejoin="round"/>
<path d="M201.022 150.551H206.405" stroke="#C3C3E5" stroke-width="2" stroke-miterlimit="10" stroke-linecap="round" stroke-linejoin="round"/>
<path d="M186.926 24.6755H212.748C215.952 24.6755 218.579 27.3026 218.579 30.5064V113.163C218.579 116.367 215.952 118.994 212.748 118.994H81.6179C78.4141 118.994 75.787 116.367 75.787 113.163V30.5064C75.787 27.3026 78.4141 24.6755 81.6179 24.6755H124.1" stroke="#7A79A1" stroke-width="2" stroke-miterlimit="10" stroke-linecap="round" stroke-linejoin="round"/>
<path d="M168.952 136.231L155.657 132.13L154.343 118.994H137.107L135.794 132.13L122.498 136.231C121.056 136.231 119.871 137.416 119.871 138.858C119.871 140.299 121.056 141.485 122.498 141.485H168.92C170.362 141.485 171.548 140.299 171.548 138.858C171.58 137.416 170.394 136.231 168.952 136.231Z" stroke="#7A79A1" stroke-width="2" stroke-miterlimit="10" stroke-linecap="round" stroke-linejoin="round"/>
<path d="M191.283 34.6072H202.848C206.052 34.6072 208.679 37.2343 208.679 40.4381V103.232C208.679 106.436 206.052 109.063 202.848 109.063H91.5496C88.3458 109.063 85.7188 106.436 85.7188 103.232V40.4381C85.7188 37.2343 88.3458 34.6072 91.5496 34.6072H114.36" stroke="#7A79A1" stroke-width="2" stroke-miterlimit="10" stroke-linecap="round" stroke-linejoin="round"/>
<path opacity="0.3" d="M104.392 82.5874C109.038 87.6494 116.246 100.945 123.198 108.057C123.327 108.218 123.455 108.378 123.615 108.538H168.852C173.017 103.476 177.726 96.7481 179.296 90.757C179.296 90.757 182.5 95.2743 187.466 96.2675C187.466 96.2675 196.244 98.7344 193.393 93.4162C190.509 88.0979 189.356 89.6037 188.043 70.5413C186.729 51.4789 185.063 48.6596 184.775 48.4674L153.698 15.8531C153.698 15.8531 144.215 13.5464 137.391 16.8783C137.391 16.8783 122.429 21.4276 109.711 41.2269C105.77 47.3781 103.944 56.5729 103.335 63.8134C97.6644 63.5251 98.4653 51.4789 95.5178 52.3119C92.6024 53.1128 88.5657 65.3832 93.0189 72.0791C97.2479 78.3905 99.7789 77.5575 104.392 82.5874ZM153.442 68.587C153.858 63.9736 155.172 57.7583 160.138 56.2205C161.611 55.772 163.117 55.4516 165.36 55.4516C167.538 55.4836 170.71 55.3875 172.664 56.5409C174.939 57.8864 173.754 60.6737 173.241 62.66C172.664 64.9988 171.735 67.9142 170.166 69.8365C169.3 70.8617 168.275 71.3422 167.026 71.8548C162.284 73.8732 160.042 71.4063 157.671 72.1752C157.671 72.1752 155.428 73.0402 154.307 72.1111C153.186 71.182 153.378 69.42 153.442 68.587ZM118.329 56.5729C120.315 55.4195 123.519 55.4836 125.697 55.4836C127.94 55.4516 129.51 55.772 130.983 56.2525C136.013 57.7903 137.359 63.9736 137.775 68.619C137.84 69.452 138.064 71.2141 136.91 72.1752C135.757 73.1043 133.514 72.2393 133.514 72.2393C131.112 71.4704 128.837 73.9373 124.031 71.9189C122.782 71.4063 121.725 70.9258 120.86 69.9005C119.258 68.0103 118.361 65.0949 117.752 62.7241C117.207 60.6737 116.022 57.8864 118.329 56.5729Z" fill="#00D9BA"/>
<path d="M168.82 108.506C172.985 103.444 177.694 96.7164 179.264 90.7253C179.264 90.7253 182.468 95.2426 187.434 96.2358C187.434 96.2358 196.212 98.7027 193.361 93.3844C190.477 88.0662 189.324 89.572 188.01 70.5096C186.697 51.4472 185.031 48.6279 184.743 48.4357" stroke="#00D9BA" stroke-width="2" stroke-miterlimit="10" stroke-linecap="round" stroke-linejoin="round"/>
<path d="M153.698 15.8531C153.698 15.8531 144.215 13.5464 137.391 16.8783C137.391 16.8783 122.429 21.4276 109.71 41.2269C105.77 47.3781 103.944 56.5729 103.335 63.8134C97.6643 63.5251 98.4652 51.4789 95.5178 52.3119C92.5703 53.1449 88.6297 65.3192 92.9868 72.1111C96.7672 78.0061 98.8817 78.839 103.944 81.7865C109.871 85.2466 116.214 100.977 123.166 108.089C123.294 108.25 123.423 108.41 123.583 108.57" stroke="#00D9BA" stroke-width="2" stroke-miterlimit="10" stroke-linecap="round" stroke-linejoin="round"/>
<path d="M197.173 47.3142C194.803 44.3667 192.88 39.9135 191.759 35.9408C190.317 30.7827 187.498 25.7528 184.518 21.3637C181.026 16.2377 177.022 10.535 171.864 6.97878C168.436 4.608 153.41 -3.1451 150.879 3.87113C150.334 5.3769 150.398 7.68361 150.751 9.25346C151.84 14.0591 155.492 18.4483 158.472 22.2287C161.9 26.5538 165.616 30.6226 169.461 34.5952C176.285 41.6435 183.75 49.0442 192.784 53.177C194.963 54.1702 197.622 54.7789 199.961 55.1313C201.37 55.3236 203.549 55.708 204.862 54.9071C206.592 53.8819 204.158 52.4081 203.004 51.8635C200.217 50.4538 198.903 49.4927 197.173 47.3142Z" stroke="#00D9BA" stroke-width="2" stroke-miterlimit="10" stroke-linecap="round" stroke-linejoin="round"/>
<path d="M133.482 72.1755C133.482 72.1755 135.725 73.0405 136.878 72.1114C138.032 71.1823 137.84 69.3882 137.743 68.5552C137.327 63.9418 135.981 57.7265 130.951 56.1887C129.478 55.7402 127.94 55.4198 125.665 55.4198C123.455 55.4518 120.251 55.3557 118.297 56.5091C115.99 57.8547 117.207 60.6419 117.688 62.6283C118.297 64.967 119.194 67.8824 120.796 69.8047C121.661 70.8299 122.718 71.3105 123.967 71.8231C128.805 73.8735 131.08 71.4066 133.482 72.1755Z" stroke="#00D9BA" stroke-width="2" stroke-miterlimit="10" stroke-linecap="round" stroke-linejoin="round"/>
<path d="M157.703 72.1755C157.703 72.1755 155.46 73.0405 154.339 72.1114C153.186 71.1823 153.41 69.3882 153.474 68.5552C153.89 63.9418 155.204 57.7265 160.17 56.1887C161.643 55.7402 163.149 55.4198 165.392 55.4198C167.57 55.4518 170.742 55.3557 172.696 56.5091C174.971 57.8547 173.786 60.6419 173.273 62.6283C172.696 64.967 171.767 67.8824 170.198 69.8047C169.332 70.8299 168.307 71.3105 167.058 71.8231C162.316 73.8735 160.074 71.4066 157.703 72.1755Z" stroke="#00D9BA" stroke-width="2" stroke-miterlimit="10" stroke-linecap="round" stroke-linejoin="round"/>
<path opacity="0.5" d="M133.643 61.4747C133.45 61.1863 132.265 59.6806 129.734 59.2321C127.203 58.7835 124.768 59.2 123.327 59.5204C121.885 59.8408 122.301 61.3465 122.301 61.3465C122.301 61.3465 122.654 62.8523 123.583 65.4153C124.512 67.9783 127.171 68.8433 130.119 68.6191C133.066 68.4268 135.213 69.9647 135.245 67.1774C135.341 64.4221 133.835 61.763 133.643 61.4747ZM130.823 66.5366C130.823 66.5366 128.581 66.7289 128.068 65.8318C127.588 64.9347 127.267 64.0697 127.267 64.0697C127.267 64.0697 126.338 62.7241 128.292 62.7882C130.247 62.8523 131.176 62.4358 132.137 64.8707C133.098 67.3055 130.823 66.5366 130.823 66.5366Z" fill="#00D9BA"/>
<path opacity="0.5" d="M167.731 59.5207C166.289 59.2003 163.886 58.7518 161.387 59.2323C158.888 59.6809 157.735 61.1866 157.543 61.475C157.35 61.7633 155.877 64.4224 155.909 67.2097C155.973 69.997 158.055 68.4592 160.971 68.6514C163.886 68.8436 166.481 67.9786 167.41 65.4476C168.339 62.8846 168.692 61.3789 168.692 61.3789C168.692 61.3789 169.14 59.8411 167.731 59.5207ZM163.79 64.07C163.79 64.07 163.502 64.935 162.989 65.8321C162.508 66.7291 160.298 66.5369 160.298 66.5369C160.298 66.5369 158.055 67.3058 158.984 64.871C159.945 62.4361 160.875 62.8526 162.765 62.7885C164.719 62.7244 163.79 64.07 163.79 64.07Z" fill="#00D9BA"/>
<path d="M155.236 7.71582C155.236 7.71582 154.819 6.01782 156.934 5.60133C159.048 5.18484 164.943 6.43431 169.973 10.6633" stroke="#00D9BA" stroke-width="2" stroke-miterlimit="10" stroke-linecap="round" stroke-linejoin="round"/>
<path opacity="0.5" d="M202.023 81.9594L205.537 58.0091C205.537 57.9765 205.6 57.9765 205.6 58.0091V103.753C205.6 105.452 204.282 106.825 202.65 106.825H183.196C183.165 106.825 183.133 106.759 183.196 106.759C193.237 102.544 200.391 93.1341 202.023 81.9594Z" fill="white"/>
<path d="M274.874 95.3905C273.891 92.4708 272.815 89.5511 271.494 86.7851C271.217 86.2319 270.941 85.648 270.664 85.1255" stroke="#A2A2CC" stroke-width="2" stroke-miterlimit="10" stroke-linecap="round"/>
<path d="M287.106 99.3858C286.215 100.953 285.447 102.613 284.74 104.272C283.787 106.516 282.957 108.79 282.281 111.095" stroke="#A2A2CC" stroke-width="2" stroke-miterlimit="10" stroke-linecap="round"/>
<path d="M281.298 115.398C281.543 113.923 281.881 112.509 282.281 111.095" stroke="#A2A2CC" stroke-width="2" stroke-miterlimit="10" stroke-linecap="round"/>
<path d="M274.844 95.3907L275.612 98.1874C276.257 100.8 276.688 103.566 276.688 106.27C276.688 110.296 275.427 112.909 273.922 115.398" stroke="#A2A2CC" stroke-width="2" stroke-miterlimit="10" stroke-linecap="round"/>
<path d="M265.193 83.128C266.146 85.1257 268.574 86.0169 270.633 85.1257C272.692 84.2037 273.614 81.8372 272.661 79.8088C271.709 77.8112 266.668 71.2957 264.609 72.2177C262.55 73.1397 264.24 81.0996 265.193 83.128Z" stroke="#D6B218" stroke-width="2" stroke-miterlimit="10"/>
<path d="M259.692 81.161C260.645 83.1586 264.702 83.343 268.82 81.499C272.907 79.6858 275.458 76.5817 274.536 74.5533C273.584 72.5557 262.796 68.5911 262.796 68.5911C262.796 68.5911 258.77 79.1326 259.692 81.161Z" stroke="#D6B218" stroke-width="2" stroke-miterlimit="10" stroke-linecap="round" stroke-linejoin="round"/>
<path d="M268.728 81.5605L265.562 78.2413" stroke="#D6B218" stroke-width="2" stroke-miterlimit="10" stroke-linecap="round" stroke-linejoin="round"/>
<path d="M268.728 81.5605L268.758 76.7969" stroke="#D6B218" stroke-width="2" stroke-miterlimit="10" stroke-linecap="round" stroke-linejoin="round"/>
<path d="M292.362 97.3267C291.409 99.3244 288.981 100.216 286.922 99.3244C284.863 98.4024 283.941 96.0359 284.893 94.0075C285.846 92.0098 290.886 85.4944 292.946 86.4164C295.005 87.3384 293.284 95.329 292.362 97.3267Z" stroke="#D6B218" stroke-width="2" stroke-miterlimit="10"/>
<path d="M297.863 95.36C296.91 97.3577 292.853 97.5421 288.735 95.6981C284.647 93.8848 282.097 90.7807 283.019 88.7524C283.941 86.724 294.759 82.7901 294.759 82.7901C294.759 82.7901 298.785 93.3316 297.863 95.36Z" stroke="#D6B218" stroke-width="2" stroke-miterlimit="10" stroke-linecap="round" stroke-linejoin="round"/>
<path d="M288.827 95.7595L291.993 92.4403" stroke="#D6B218" stroke-width="2" stroke-miterlimit="10" stroke-linecap="round"/>
<path d="M288.827 95.7593L288.796 90.9956" stroke="#D6B218" stroke-width="2" stroke-miterlimit="10" stroke-linecap="round"/>
<path d="M267.652 140.569C267.652 142.29 269.158 143.703 271.033 143.703H280.283H285.231H286.368C288.212 143.703 289.749 142.29 289.749 140.569L293.99 118.502C293.99 116.781 292.484 115.367 290.61 115.367H267.222C265.378 115.367 263.841 116.781 263.841 118.502L267.652 140.569Z" stroke="#A2A2CC" stroke-width="2" stroke-miterlimit="10" stroke-linecap="round"/>
<path d="M289.702 127.292L287.581 139.616C287.428 140.476 286.69 141.122 285.799 141.122L276.087 141.214L279.283 140.323C283.094 139.247 286.168 136.45 287.581 132.762L289.702 127.292Z" fill="#D6B218" fill-opacity="0.3"/>
<path d="M236.007 121.622C235.751 121.622 235.495 121.461 235.431 121.173L232.355 110.44C232.259 110.12 232.451 109.8 232.771 109.704C233.092 109.607 233.412 109.8 233.508 110.12L236.584 120.853C236.68 121.173 236.488 121.493 236.167 121.589C236.103 121.622 236.071 121.622 236.007 121.622Z" fill="#D6B218"/>
<path d="M239.595 121.622C239.275 121.622 238.987 121.365 238.987 121.013V105.411C238.987 105.09 239.243 104.802 239.595 104.802C239.916 104.802 240.204 105.058 240.204 105.411V121.013C240.172 121.333 239.916 121.622 239.595 121.622Z" fill="#A2A2CC"/>
<path d="M243.921 121.622C243.889 121.622 243.857 121.622 243.825 121.622C243.504 121.557 243.28 121.269 243.312 120.949L244.85 111.241C244.914 110.921 245.202 110.697 245.523 110.729C245.843 110.793 246.067 111.081 246.035 111.402L244.497 121.109C244.465 121.397 244.241 121.622 243.921 121.622Z" fill="#FF6C7D"/>
<path d="M247.252 121.365C247.22 121.365 247.156 121.365 247.124 121.365C246.804 121.301 246.612 120.981 246.676 120.661L248.214 113.997C248.278 113.676 248.598 113.484 248.918 113.548C249.239 113.612 249.431 113.933 249.367 114.253L247.829 120.917C247.797 121.173 247.541 121.365 247.252 121.365Z" fill="#A2A2CC"/>
<path d="M250.777 120.628C250.68 120.5 250.488 120.436 250.328 120.436H231.65C231.49 120.436 231.33 120.5 231.202 120.628C231.073 120.757 231.041 120.917 231.041 121.109L231.33 123.768L231.458 124.954L233.572 143.856C233.604 144.176 233.861 144.4 234.181 144.4H247.733C248.021 144.4 248.31 144.176 248.342 143.856L250.905 121.077C250.937 120.917 250.905 120.757 250.777 120.628ZM247.22 143.183H234.726L232.675 124.825L232.547 123.608L232.323 121.59H249.655L247.22 143.183Z" fill="#A2A2CC"/>
<path d="M243.92 144.368C243.6 144.368 243.312 144.112 243.312 143.76V127.645C243.312 127.324 243.568 127.036 243.92 127.036C244.273 127.036 244.529 127.292 244.529 127.645V143.76C244.529 144.112 244.273 144.368 243.92 144.368Z" fill="#A2A2CC"/>
<path d="M233.957 128.542L235.559 142.029C235.591 142.158 235.687 142.254 235.815 142.254H242.319C238.891 141.293 236.232 138.537 235.431 135.045L233.957 128.542Z" fill="white"/>
<path d="M55.3078 123.392C60.8839 123.392 65.4042 118.872 65.4042 113.296C65.4042 107.72 60.8839 103.2 55.3078 103.2C49.7318 103.2 45.2115 107.72 45.2115 113.296C45.2115 118.872 49.7318 123.392 55.3078 123.392Z" stroke="#D6B218" stroke-width="2" stroke-miterlimit="10" stroke-linecap="round" stroke-linejoin="round"/>
<path d="M63.6197 137.856V137.997C63.6197 138.842 62.9623 139.5 62.117 139.5H48.4517C47.6064 139.5 46.9489 138.842 46.9489 137.997V137.856C46.9489 137.058 47.6064 136.353 48.4517 136.353H62.117C62.9623 136.4 63.6197 137.058 63.6197 137.856Z" stroke="#D6B218" stroke-width="2" stroke-miterlimit="10" stroke-linecap="round" stroke-linejoin="round"/>
<path d="M56.9513 135.696V127.431" stroke="#D6B218" stroke-width="2" stroke-miterlimit="10" stroke-linecap="round" stroke-linejoin="round"/>
<path d="M53.6642 135.696V127.431" stroke="#D6B218" stroke-width="2" stroke-miterlimit="10" stroke-linecap="round" stroke-linejoin="round"/>
<path d="M59.7692 125.412V125.6C59.7692 126.633 58.9239 127.431 57.9378 127.431H52.7252C51.7391 127.431 50.8938 126.586 50.8938 125.6V125.412C50.8938 124.379 51.7391 123.58 52.7252 123.58H57.9378C58.9239 123.533 59.7692 124.379 59.7692 125.412Z" stroke="#D6B218" stroke-width="2" stroke-miterlimit="10" stroke-linecap="round" stroke-linejoin="round"/>
<path d="M42.535 117.757C42.535 117.71 40.5627 119.401 40.7505 121.232C40.7975 121.843 41.314 122.36 41.8776 122.641C42.4411 122.923 43.0985 122.923 43.709 122.876C46.4796 122.688 48.8746 120.951 51.2695 119.683C55.402 117.523 59.3936 115.081 63.3383 112.545C65.4045 111.23 69.0673 109.633 70.3353 107.473C70.8988 106.534 70.9457 105.219 70.1944 104.468C69.7717 104.045 69.1613 103.81 68.5508 103.763C67.095 103.529 65.7802 104.515 65.7802 104.515" stroke="#D6B218" stroke-width="2" stroke-miterlimit="10" stroke-linecap="round" stroke-linejoin="round"/>
<path d="M49.4378 110.76C49.4378 110.76 51.7388 106.393 56.9514 106.956" stroke="#D6B218" stroke-width="2" stroke-miterlimit="10" stroke-linecap="round" stroke-linejoin="round"/>
<path d="M7.01416 144.368H6.46742C3.46034 144.368 1 141.908 1 138.901V89.4205C1 86.4135 3.46034 83.9531 6.46742 83.9531H7.01416C10.0212 83.9531 12.4816 86.4135 12.4816 89.4205V138.901C12.4816 141.908 10.0212 144.368 7.01416 144.368Z" stroke="#C3C3E5" stroke-width="2" stroke-miterlimit="10" stroke-linecap="round" stroke-linejoin="round"/>
<path d="M15.8533 144.369H15.58C13.9397 144.369 12.5729 143.002 12.5729 141.361V95.7996C12.5729 94.1594 13.9397 92.7925 15.58 92.7925H15.8533C17.4935 92.7925 18.8604 94.1594 18.8604 95.7996V141.361C18.7693 143.002 17.4935 144.369 15.8533 144.369Z" stroke="#C3C3E5" stroke-width="2" stroke-miterlimit="10" stroke-linecap="round" stroke-linejoin="round"/>
<path d="M12.4818 131.246H1.00021" stroke="#C3C3E5" stroke-width="2" stroke-miterlimit="10" stroke-linecap="round" stroke-linejoin="round"/>
<path d="M12.4818 123.956H1.00018" stroke="#C3C3E5" stroke-width="2" stroke-miterlimit="10" stroke-linecap="round" stroke-linejoin="round"/>
<path d="M12.4818 104.365H1.00021" stroke="#C3C3E5" stroke-width="2" stroke-miterlimit="10" stroke-linecap="round" stroke-linejoin="round"/>
<path d="M12.4826 97.0751H1.00107" stroke="#C3C3E5" stroke-width="2" stroke-miterlimit="10" stroke-linecap="round" stroke-linejoin="round"/>
<path d="M30.1592 143.731L29.6124 143.822C26.6053 144.095 23.9628 141.908 23.6894 138.901L18.8598 89.6942C18.5865 86.6871 20.7734 84.0446 23.7805 83.7712L24.3272 83.6801C27.3343 83.4067 29.9769 85.5937 30.2503 88.6007L35.0798 137.807C35.3532 140.815 33.1662 143.457 30.1592 143.731Z" stroke="#C3C3E5" stroke-width="2" stroke-miterlimit="10" stroke-linecap="round" stroke-linejoin="round"/>
<path d="M22.6873 129.242L34.0778 127.784" stroke="#C3C3E5" stroke-width="2" stroke-miterlimit="10" stroke-linecap="round" stroke-linejoin="round"/>
<path d="M19.7711 99.0798L31.1616 97.713" stroke="#C3C3E5" stroke-width="2" stroke-miterlimit="10" stroke-linecap="round" stroke-linejoin="round"/>
</svg>
