<svg width="80" height="80" viewBox="0 0 80 80" fill="none" xmlns="http://www.w3.org/2000/svg">
<path d="M40 33.28C43.8881 33.28 47.04 29.3401 47.04 24.48C47.04 19.6199 43.8881 15.68 40 15.68C36.1119 15.68 32.96 19.6199 32.96 24.48C32.96 29.3401 36.1119 33.28 40 33.28Z" stroke="#505071" stroke-width="2" stroke-linecap="round" stroke-linejoin="round"/>
<path d="M34.88 30.72C33.3824 31.255 31.9792 32.0106 30.72 32.96" stroke="#505071" stroke-width="2" stroke-linecap="round" stroke-linejoin="round"/>
<path d="M45.12 30.72C46.3578 31.2496 47.5368 31.8928 48.64 32.64" stroke="#505071" stroke-width="2" stroke-linecap="round" stroke-linejoin="round"/>
<path d="M59.84 46.4C63.7281 46.4 66.88 42.4601 66.88 37.6C66.88 32.7399 63.7281 28.8 59.84 28.8C55.9519 28.8 52.8 32.7399 52.8 37.6C52.8 42.4601 55.9519 46.4 59.84 46.4Z" stroke="#505071" stroke-width="2" stroke-linecap="round" stroke-linejoin="round"/>
<path d="M65.12 43.52C65.12 43.52 69.934 46.2375 71.8835 47.8246C72.3459 48.2023 72.7429 48.654 73.0586 49.1616C73.6338 50.1148 73.932 51.2104 73.9196 52.3248V58.8849C70.0518 62.3722 65.0394 64.3071 59.84 64.3199C54.6353 64.3361 49.6129 62.3973 45.7604 58.8849V52.3248C45.748 51.2104 46.0463 50.1148 46.6214 49.1616C46.9371 48.654 47.3341 48.2023 47.7965 47.8246C49.746 46.2538 54.4 43.52 54.4 43.52" stroke="#505071" stroke-width="2" stroke-linecap="round" stroke-linejoin="round"/>
<path d="M49.8507 51.52C49.6772 51.8278 49.5908 52.1765 49.6008 52.529V57.1641C52.5139 59.3172 56.0485 60.48 59.6799 60.48C63.3112 60.48 66.8458 59.3172 69.7589 57.1641V52.5614C69.7706 52.2093 69.6861 51.8607 69.5144 51.5524C66.6782 54.2503 63.3094 55.8691 59.6799 55.8691C56.0503 55.8691 52.6816 54.2395 49.8507 51.52Z" fill="#C3C3E5"/>
<path d="M20.16 46.4C24.0481 46.4 27.2 42.4601 27.2 37.6C27.2 32.7399 24.0481 28.8 20.16 28.8C16.2719 28.8 13.12 32.7399 13.12 37.6C13.12 42.4601 16.2719 46.4 20.16 46.4Z" stroke="#505071" stroke-width="2" stroke-linecap="round" stroke-linejoin="round"/>
<path d="M25.28 43.68C25.28 43.68 29.9793 46.2375 31.9066 47.8246C32.3637 48.2023 32.7563 48.654 33.0684 49.1616C33.637 50.1148 33.9318 51.2104 33.9196 52.3248V58.8849C30.097 62.3744 25.1407 64.3096 20 64.3199C14.8545 64.3356 9.88933 62.3969 6.08035 58.8849V52.3248C6.06815 51.2104 6.36299 50.1148 6.93159 49.1616C7.2437 48.654 7.63623 48.2023 8.09334 47.8246C10.0207 46.2538 14.72 43.68 14.72 43.68" stroke="#505071" stroke-width="2" stroke-linecap="round" stroke-linejoin="round"/>
<path d="M10.1656 51.52C9.99394 51.8283 9.90946 52.177 9.92107 52.529V57.1641C12.8342 59.3172 16.3688 60.48 20.0002 60.48C23.6315 60.48 27.1661 59.3172 30.0792 57.1641V52.5614C30.0892 52.2088 30.0028 51.8601 29.8293 51.5524C26.9985 54.2503 23.6243 55.8691 20.0002 55.8691C16.376 55.8691 12.9964 54.2395 10.1656 51.52Z" fill="#C3C3E5"/>
<path d="M49.4017 42.3248C47.9495 43.0051 46.6287 43.9482 45.5026 45.1087C45.1319 45.5234 44.6798 45.8528 44.176 46.0753C43.6722 46.2978 43.1281 46.4083 42.5796 46.3995H37.4377C36.8902 46.4075 36.3471 46.2966 35.8443 46.0742C35.3414 45.8517 34.8902 45.5227 34.5201 45.1087C33.394 43.9507 32.0754 43.0079 30.6264 42.3248C30.547 42.289 30.482 42.2265 30.4422 42.1475C30.4025 42.0685 30.3903 41.978 30.4078 41.8909C30.4253 41.8039 30.4713 41.7256 30.5383 41.6692C30.6052 41.6128 30.689 41.5816 30.7757 41.5809L33.0479 41.4661C37.6675 41.218 42.2965 41.218 46.9161 41.4661L49.2256 41.5864C49.3099 41.5886 49.3912 41.6192 49.4569 41.6734C49.5226 41.7277 49.569 41.8026 49.589 41.8866C49.609 41.9706 49.6015 42.059 49.5677 42.1382C49.5338 42.2174 49.4755 42.283 49.4017 42.3248Z" fill="#EDEDF9"/>
</svg>
